<svg id="background_Image_copy" data-name="background Image copy" xmlns="http://www.w3.org/2000/svg" viewBox="0 0 1920 1080"><title>background</title><path d="M893,1080H0V382c2-2.55,4.77-3.23,7.89-3.5,5.6-.49,11.25-.73,16.71-2.3,5.12,2.18,10-.36,14.95-.91,22.16-2.47,44.33-5,66.49-7.21,19.35-1.93,38.76-3.56,58.12-5.54,25.16-2.57,50.31-5.25,75.48-7.7,21.86-2.14,43.73-4.12,65.57-6.39,19.86-2.06,39.73-4.08,59.56-6.45,10.57-1.26,21.26-1.58,31.76-3.31s21.16-1.86,31.57-4.14c10-2.19,20.24-.7,30.37-1.87,22.47-2.61,45-4.67,67.54-6.75,18.39-1.71,36.75-3.68,55.14-5.4,11.26-1,22.5-2.36,33.78-3.27,7.31-.59,11.52-5.81,16.11-10.8,10.12-11,18.37-23.68,29.48-33.83,2.16-2,4.49-5.74,7.81-2.19,3.11,3.32.18,5.61-2.43,7.67-3.29,2.6-4.83,6.29-6,10.16-1.91,6.19-5,11.44-10.49,15.33-2.72,1.93-5.37,4.34-6.56,8.63,10,1.13,19.48,1.17,28.74-2,2.59-.9,4-3.4,5.41-5.7,1.31-2.14,2.56-4.54,5.65-4.06,2.59.41,3.93,2.26,4.62,4.68a8.71,8.71,0,0,0,2.4,3.74c1.6,1,3.2-.1,4.8,0,6,.21,11.95-.61,17.84-1.4A117.08,117.08,0,0,1,729.57,306c2.35,0,3.93-1.71,6.11-1.54,2.42-.07,4.84.4,7.26.15,11.81-2,23.77-2.82,35.67-4.06,21.51-2.24,43-4.6,64.53-6.52,22.19-2,44.25-5.32,66.53-6.18,1.7-.06,3.18-.95,4.86-1a23.73,23.73,0,0,0,9.61-1.19c2.81-.16,5.61-.3,8.41-.6,6.26-.68,8,.7,8.73,7.05s1.09,12.51,2.33,18.67c-.09,1.79-.71,3.43-.38,5.38,3,17.75,4,35.72,5.87,53.6.25,2.35-.67,4.61-.67,6.94-1.2,3.87-4.47,6.22-7.24,8.58-21.32,18.11-42.85,36-64.36,53.86-2.32,1.93-4.57,3.52-7.64,1.2,2.91,6.24-5.53,8-5.26,13.48,2.61.25,3.73-1.61,5.14-2.85,11.91-10.4,23.87-20.74,35.49-31.47a13.54,13.54,0,0,1,2.74-2.15,3.07,3.07,0,0,1,3.72.27,3.1,3.1,0,0,1,.73,3.66,12.4,12.4,0,0,1-1.94,2.89c-17.87,25-17.75,59.16,3,82.72a11.9,11.9,0,0,1,3.08,9.56c-1,11.61-1,23.3-1.2,34.92-.35,21.64-1.89,43.22-2.47,64.85-.41,15.62-1.08,31.26-1.85,46.87-1,19.62-1.23,39.25-2.07,58.87-.73,17.12-.92,34.28-2,51.36-1.68,25.41-1.39,50.89-3.18,76.3a213.81,213.81,0,0,0-.64,22.94c.42,11.17-.73,22.27-1.61,33.39a115,115,0,0,0-.17,12.45c.58,19.19-2.49,38.22-2.2,57.36.45,30-3.23,59.86-2.12,89.86C896.55,1070.56,895.93,1075.63,893,1080Z" transform="translate(0)" fill="#f8f8f8"/><path d="M1053,0h867V899c-2.27,1.56-3.7-.07-5.21-1.38-20.66-17.82-41-36-61.41-54.11-19.46-17.17-38.63-34.68-58.26-51.67-17.24-14.92-33.87-30.53-50.92-45.65-6.48-5.74-13.39-11-19.33-17.33-2.56-2.74-6-3.49-9.46-4.06-20.38-3.32-40.71-6.85-61.08-10.2-23.33-3.85-46.64-7.78-70.3-11.69,6,8.4,13.76,14.9,20.47,22.31,7.36,8.13,15,16,22.56,24,18.74,19.84,37.59,39.58,56.06,59.68,11,12,22.29,23.82,33.38,35.78,15.73,17,31.73,33.67,47.23,50.84,9.7,10.75,19.63,21.3,29.64,31.75,19.34,20.2,38.45,40.62,57.66,61,16.68,17.66,33.19,35.49,50,53,5,5.16,9.66,10.57,14.78,15.57,2.08,2,2.7,4.82,4.19,7.14v16h-15c-7.14-2.86-11.17-9.28-16.09-14.53-10.12-10.8-20.06-21.78-30.1-32.66-19.52-21.13-39.15-42.16-58.53-63.43-8.74-9.59-17.66-19-26.44-28.56-13.83-15.08-27.59-30.21-41.47-45.24-12.86-13.94-25.65-27.94-38.52-41.87q-20.65-22.37-41.19-44.84c-9-9.81-18-19.62-27.08-29.34C1610.8,763.74,1596,748,1581.47,732c-4.18-4.63-7.91-9.65-12.13-14.26a14.92,14.92,0,0,0-3.92-2.9,89.71,89.71,0,0,0-6.79-7.27c-1.82-1.85-3.31-3.79-2.2-7.71-2,3.76-3.74,3.28-5.63,1.67s-2.74-3.74-4.17-5.55c-7.23-4.73-11.68-12.66-19.53-16.74-2.66-1.39-4.77-3.19-8.17-2.46-2.37.51-4.28-1.41-6.06-3-5.33-4.72-8.64-11-12.72-16.62-15.15-20.93-28.89-42.85-45-63.1a21.08,21.08,0,0,1-3.39-5.51,3.2,3.2,0,0,1,1-4,3.13,3.13,0,0,1,4.51.39c5.53,6.2,13.43,10.23,16.08,17.09-1.94-3-5.16-7-8.19-11,1.71-2.75,3.4-2.25,5.4-1,1.81-2.21,4.32-3.59,6.26-.42,6.53,10.65,15.81,19.2,21.75,28.51-6-8.37-13.32-17.49-19.76-27.25-11.82-17.93-24.71-35.14-36-53.43a123.78,123.78,0,0,0-8.1-11.41c-3.21-4.1-6.8-7.9-12.69-7.79a2,2,0,0,1-1.42-.41c-6.51-6.8-16.12-9-22.15-17.29-9.46-12.95-16.92-27.19-26.78-39.84-2.11-2.71-4.5-5.12-6.68-7.73-3.89-4.67-6.17-10.35-9.49-14.59-.76-1.07.37-.75-.24-.49-.09,0-.06.16.09.39,7.94,12.46,16.9,24.2,25.66,36.08,4.75,6.45,8,13.81,12.92,20.16a3.13,3.13,0,0,1-.33,4.15c-1.37,1.6-3.49,2.1-5,1.05-4.69-3.3-10.27-4.76-15.07-7.78-2.78-1.74-4.29-4.1-3.5-7.55a13.25,13.25,0,0,0-2.12-10.94c-1.23-1.79-2.21-4.1-4.89-3.43-2.37.58-4.76,2.38-4.64,4.7.34,6.41-3.88,6.76-8.33,7.15-3,.27-7.61-2.88-8.88-6.85-1.42-4.5-4.66-7.63-7.13-11.35-3.87-5.86-9.23-10.5-13.17-16.29-2.47-3.64-4.57-7-1.93-11.87,1.59-2.91.79-6.85,1.41-10.3,1.4-7.8,3.51-15.41,5.63-23a11.42,11.42,0,0,0,.38-4.95,24.23,24.23,0,0,1,.35-9.36c1.07-5-4.19-14.74-9.87-16.71-6.2-2.16-9.44-6.33-12.85-11.52-5.63-8.59-11.52-17.05-17.39-25.5-3.64-5.23-7-10.63-10.4-16,9,14,18,28,27.92,41.27a7.85,7.85,0,0,1,1.54,3c.43,2,.81,4-1.22,5.42s-3.69.41-5.42-.88c-6.09-4.53-10.74-10.3-15.15-16.42-20.72-28.79-40.29-58.39-61.09-87.12-9.15-12.63-18.41-25.27-26.09-38.94-1.13-3-4.71-4.81-4-8.63a2.8,2.8,0,0,1,1.79-1.54c1.45-.29,2.38.83,3.55,1.3,3.65,2.07,4.37,6.56,7.86,9.34,4.26-.77,7,2,8.72,4.89a59.4,59.4,0,0,0-4.61-5c-2-1.93-4-4.24-1.62-6.84,2.59-2.91,4.36.28,6.28,1.56a2.86,2.86,0,0,1,1,1.1c-3.57-3.49-7.78-7.72-10.17-13.33q0-1.06,0-2.13c1.2-2.62,1.7-6.58,5.56-5.8,3.16.64,4.55,3.8,5,7.13a11.36,11.36,0,0,0,4.77,7.94c5.23,3.55,7.83,8.95,11.11,13.91,1.94,2.94,4.1,5.75,5.7,8.56a308.73,308.73,0,0,0-17.64-25.6c-3.2-4.07-5.11-8.88-8.19-13-2.43-3.26-.59-6.73,1-9.79,1.86-3.53,3.69-7.08,5.46-10.65,1.87-3.76,1.25-7.06-1.62-10.05q-1.9-2-3.84-3.92c-18.62-18.55-37.13-37.22-55.76-55.76a84.35,84.35,0,0,1-8-8.8c-2.89-3.82-6.21-7.09-10.63-9.06-3.42-4.65-6.39-9.73-11.62-12.73-6.06-5.57-12.28-11-17.32-17.56-3.12-4.09-6.52-7.82-11.34-9.94a28.05,28.05,0,0,0-4.83-5.65c-12.63-12.69-25.39-25.25-37.92-38C1053.81,4.59,1051.12,3.11,1053,0Z" transform="translate(0)" fill="#f7f7f7"/><path d="M0,344V0H589c3.91,1.93,6.86,5,9.89,8,12,12,24.19,23.76,35.51,36.39a27,27,0,0,1,4.38,7.11c1.86.65,2.9-.69,4-1.51,6.39-4.6,13.06-2.85,15.57,4.7,1.69,5.08,1.6,10.62,2.16,16-.83,1.24-2.16,1.43-3.48,1.62-15.94,2.36-29.52,9.46-41.09,20.56-1.3,1.25-2.5,2.69-4.38,3.15-4.47.12-7.19-2.4-8.46-6.31-1-3.22,2.52-10,6.57-11.48,8-3,8.47-10,9.73-16.66.51-2.67-1.05-4.77-3.73-5.81-6-2.35-12.35-2.5-18.67-2.7a6.39,6.39,0,0,0-4.13,1.61,4.55,4.55,0,0,1-3.67,1.24c-7.89-1.38-14.25.95-20.27,6.45A31,31,0,0,1,556,69.53c-6.63,1.72-9.18,7.26-4.9,12.44,5.21,6.3,4.37,14,6.73,21,1,2.84-1.35,4.25-4.14,4.06a48.26,48.26,0,0,1-8.77-1.56c-2,5.55-1.5,7.3,2.74,11,.76.65,1.58,1.22,2.29,1.93,1.73,1.71,2.51,3.65,1,5.79a3.78,3.78,0,0,1-5.31,1.12,8.75,8.75,0,0,0-5.78-1.08c-4.12.71-7.19-.67-8.76-3.91,2.23,3.46,5.85,6.54,9,10s2.84,5.88-1.24,7.92c-15.94,7.94-31.59,16.6-48.55,22.24-6.64,2.21-11.59,7.06-17.89,9.77-13.91,5.95-27.12,13.48-41.37,18.72a28.27,28.27,0,0,0-8.18,4.78c-11.59,4.61-23.39,8.62-35.1,12.88-25.93,9.44-52,18.4-77.95,27.87q-30.94,11.31-62,22.29c-22.59,8-45.08,16.27-67.64,24.36q-47.7,17.08-95.4,34.21C59.14,324.54,33.6,334,8,343.27,5.52,344.17,2.86,346,0,344Z" transform="translate(0)" fill="#ededed"/><path d="M1848,1080H1524a16.58,16.58,0,0,1-7-6.79c-14.89-25-29-50.54-43.94-75.52-4.19-7-8.65-13.84-12.52-21-9.2-17-19.29-33.58-28.9-50.39-7.65-13.36-15.27-26.75-23.57-39.76-4.4-6.88-8.06-14.28-12.19-21.37-9.76-16.77-20.19-33.12-30.5-49.55-3.71-5.9-3.2-8.19,3-11.35,3.26-1.66,6.73-2.93,9.84-4.88,2-1.22,4.17-2.36,3.83-5.28a17.92,17.92,0,0,1-.23-3.35c-.37-2.59-2.31-4.23-3.7-6.21-.72-.7-1.54-1.29-2.21-2-2.94-3.26-2.66-5.74,1.24-8,11.22-6.53,22.79-12.42,34.16-18.67,11.81-6.48,23.78-12.68,35.61-19.14,9.78-5.34,19.75-10.33,29.61-15.52,1.81-.95,3.61-1.74,5.67-.74,8.8,10.34,17.37,20.88,26,31.4,2.67,3.25,6.94,4.87,10.12,7.78,1.92,1.76,4.43.32,6.55-.68,6.77-3.18,13.13-7.18,20.17-9.8,4.67-3.31,6.81-3.06,10.19,1.86,6.12,8.9,12.49,17.63,18.76,26.43,1.75,2.45,3.59,5,6.15,6.48,9.93,5.88,14.21,16.49,21.19,24.83.46,7.94,5.73,13.5,9.67,19.75,3,4.66,7.58,7.37,11.71,10.67,1.64,1.3,3.75,1.27,5.76.88,3-.58,5,.57,7,2.77,6,6.73,10.94,14.26,16.56,21.27.58.73,1,1.6,1.83,1.84-2-1-2.58-3.48-4.35-5s-3.78-3.23-2.66-6,3.66-2.44,5.91-2.8a5.73,5.73,0,0,1,3.23,2.23c10.55,12.43,21.43,24.57,32,37,13.52,16,27.5,31.66,41.08,47.64,14.88,17.49,30.19,34.6,45.22,52q20.91,24.15,41.9,48.25c9.61,11,19.26,22.07,28.83,33.16C1846.67,1074.35,1850,1076.28,1848,1080Z" transform="translate(0)" fill="#f0f0f0"/><path d="M1197,217l-2-2c-5-2.91-6.27-8.83-10-12.82a41.94,41.94,0,0,1-5.1-6.84A150,150,0,0,1,1194,216l4,8a1.16,1.16,0,0,1,.3,1.27c-2.77,2.28-5.09,1-6.78-1.28-3.91-5.21-8.79-9.45-13.41-14a12.28,12.28,0,0,0-3.49-2.76,3.62,3.62,0,0,0-4.19.43,3.45,3.45,0,0,0-.75,3.7c.58,2.3,2.08,4.12,3.16,6.17s1.19,3.94-1,5.2c-1.91,1.1-3.5.28-4.75-1.35-3.22-4.22-6.36-8.5-9.37-12.86-1.54-2.23-3.27-3.1-5.83-2.33-3.57-2.5-5.38-6.44-8.44-10.21,11,14.32,20.69,28.7,31,42.7,3.21,4.36,6.22,8.89,9.59,13.13,1.45,1.82,2.1,3.48.26,5.15-2.08,1.89-3.61.32-5-1.23a103.79,103.79,0,0,1-6.22-8.38c-9.63-13-18.65-26.53-28.24-39.61-3.81-5.21-7.74-10.34-11.37-15.68,8,11.66,17.15,22.49,24.55,34.58a2.73,2.73,0,0,1-.73,2,3.59,3.59,0,0,1-1.28.71c-5.22.57-7.94,4.66-11,8.11-1.15,1.3-1.58,3.26-3.09,4.42a12.19,12.19,0,0,0-3.66,3.38c-7.44,4.68-13.29,11.58-21.45,15.27a11.84,11.84,0,0,0-5,4.77c-1,1.65-2.43,3.26-4.11,3.42-4.38.41-8,3.41-10,5.95-3.7,4.67-9.33,5.29-13.13,8.54-9.24,7.9-19.38,14.6-28.58,22.55q-16.43,14.19-32.78,28.46c-5.14,4.47-9.73,9.54-14.93,14-1.46,1.24-1.71,3.12-2.15,4.93-1.16,4.77-3.18,9-8,11.33-7.6-3.76-12.88-9.62-17.2-16.3-7.85-.05-11.39-2.64-10.93-8.41.32-3.9,2.64-7.05,5.62-9.58.73-.62,1.86-.75,2.44-1.89.61-1.58-.42-3.06-.75-4.66-.85-4,2.17-6.86,5.8-5,5.28,2.75,9.31.77,13.32-2.29,20-15.28,38.09-32.76,55.77-50.62,6.45-6.52,13.68-12.17,20-18.78,2.9-3,5.49-6.26,8.14-9.44,5.8-6.92,13-12.35,19.1-19a47.87,47.87,0,0,0,4.86-5.69c3-4.58,3-6.44-.44-10.73A13.1,13.1,0,0,0,1085,201c-12.53,12.31-26,23.54-39.5,34.74-8.59,7.12-15.89,15.58-24,23.2-4.61,4.34-9.81,8.06-14.67,12.14-3.55,3-7.32,5.87-10.93,8.85-2.54,2.1-4.73,2.1-6.88-.31-2.44-2.74-5.13-5.41-6.71-8.67-4.22-8.73-11.38-15-17.75-21.87a31.35,31.35,0,0,1-4.52-6.46,36.43,36.43,0,0,0-9.85-11c-7.39-5.89-13.25-13.37-19.22-20.64-7.79-9.5-17.51-17.1-25.44-26.45a69,69,0,0,1-5.91-7.38c-5.58-8.7-4.82-15,2-22.73,9.34-10.63,18.73-21.2,28.46-31.48a6.94,6.94,0,0,0,2.06-6.38c-.31-1.64-.57-3.44.68-4.78,6.57-7,10.18-16.25,17.3-22.91,3.81-3.57,3.81-5.21,1.94-9-.15-.06-.36-.21-.46-.16-7.46,3.94-14.8,8.15-20.34,14.63S921,107.59,915.07,113.6a6,6,0,0,1-3,1.68,13,13,0,0,0-8.72,7c-2.9,5.65-7.56,7.49-13.33,8.13-8.88,1-11.27,3.65-11.54,12.4a33.71,33.71,0,0,1-.16,3.49c-.91,6.42-5,8.44-10.62,5.25-1-.59-2-1.26-3.59-.85-2.38,2.27-2,5.25,0,7.33,3.81,3.88,4.11,8.71,4.23,13.43.29,10.43,4.59,19,11.68,26.16,5.72,5.8,10.4,12.45,16.08,18.32,11.07,11.43,19.51,25.28,32,35.43a8.21,8.21,0,0,1,2.2,2.7c3.85,8,10.3,13.83,16.48,19.89a37.69,37.69,0,0,1,6.13,8.46,73.51,73.51,0,0,0,11.18,15.19c1.59,1.63,2.27,3.94.25,5.79s-4.18.81-5.65-1c-10.43-12.57-23.67-22.51-33.34-35.77-4-5.41-9.62-9.12-13.94-14.23-5.14-6.08-11.29-11.3-14.58-18.8-.48-1.07-1.36-1.9-3.35-2.31-3.36,2.86-7.85,4.7-12.36,6.63-3.35,1.42-5.56.91-7.33-1.68-6.15-9-15-15.6-21.28-24.32-3.57-5-7.92-8.58-12.35-12.53-4.7-4.21-10-8.74-9.94-16.29,0-2-2-3.1-3.28-4.52-5.46-6.19-12-11.36-17.24-17.75a8.52,8.52,0,0,1-1.91-8.21c5.42-2.44,10.15-6.26,14.62-10.46,3.24-3,6.73-3.85,11.32.07-1.26-5.77,1.52-8.28,4.79-10.81a22.13,22.13,0,0,0,8.64-14c1-5.25,6.36-8.51,9.68-12.74,4.38-5.58,9.53-10.46,13.39-16.58,3-4.69,7.78-8.05,11.54-12.27C897.72,58,913.26,39.78,929.24,22a60,60,0,0,0,7.55-10.37C939.63,6.6,943.13,2,949,0h104q17.48,17.73,34.93,35.45c4.07,4.14,8,8.37,12.07,12.55,6.39,8.24,13.49,16,18.9,24.91,8.11,13.4,17.27,26.08,26.26,38.87,19.23,27.37,37.91,55.11,57,82.57,2.27,3.26,4.86,6.36,4.84,10.65v2c-2.54,2.48-4.45.7-5.65-1.28-5.7-9.44-12.39-18.19-18.48-27.36-4.12-6.19-8.52-12.19-11.87-16.81,7.5,9.91,15.07,21.91,23.42,33.35a125.18,125.18,0,0,1,8.06,13C1205,212.47,1202.5,216.48,1197,217Z" transform="translate(0)" fill="#e5e5e5"/><path d="M893,1080c-.19-1.14-.71-2.34-.51-3.4,2.73-14.06,1.41-28.26,1.41-42.39,0-15.83,2.83-31.5,2.12-47.36-1.07-24.15,2.4-48.16,2.42-72.31,0-21.09,1.22-42.19,2-63.25.7-18.26.73-36.58,2.34-54.81.67-7.62.52-15.29,1-22.94.89-14.11.5-28.29,1.26-42.41,1.47-27.59,1.89-55.21,3.07-82.8.68-15.78,1-31.6,2-47.36,1.77-28.73,1.94-57.52,3.41-86.26.13-2.61-1-4.41-2.58-6.23-16.76-19.65-20.72-41.84-13-66.3,2.42-7.7,5.73-14.92,11.17-21a3,3,0,0,0,.48-2.38c-16,14.52-32.38,28.38-48.89,42.79-2.94-8.49,2.13-13.27,6.69-17.76-.46-4.42-5.57-5.38-5.79-10.06,5-.86,7.95,1.91,10.82,6,6.65-5.69,13-11.22,19.46-16.64Q919.41,400,947,377c.57-.89,1.14-1.77,2.41-1.62a2,2,0,0,1,1.28.93c.77,1.74-.28,3.25-.61,4.86-3.24,8.51-10.33,13.42-17.31,18.43-.54.4.57.42,0,0-.14-.11-.09-.29.21-.46,3.3-1.92,6.23-4.51,10-5.59,4.78-1.36,7.44-.11,8.51,4.73,1.73,7.81,1.1,16,2.93,23.75,3.68,15.62,4,31.59,5.45,47.44,1.49,16.39,3.83,32.69,4.71,49.17.75,14.1,2.6,28.15,4,42.21,1.59,15.71,3.91,31.35,4.85,47.13a108.18,108.18,0,0,0,2.61,19.78c2.68,10.73,1.88,21.79,3.16,32.67,2.16,18.5,3.9,37,5.7,55.6,1.78,18.21,3.68,36.4,5.58,54.6,1.2,11.57,2.42,23.14,4.07,34.68,1.83,12.8,3.13,25.71,3.82,38.65.21,3.84.56,7.39,2.88,10.86,2,3.06,1.81,7.06,1.36,10.84a21.4,21.4,0,0,0,6.27,18.51,7.85,7.85,0,0,1,.77,1.63c.81,10.7,2.17,21.35,3.28,32,2.86,27.26,6,54.48,8.55,81.78.63,6.78,1.71,13.52,2.11,20.32a11.58,11.58,0,0,0-.32,7.05c2.27,10.63,2.93,21.5,4,32.3.54,5.28,1.16,10.55,1.32,15.87.07,2-.13,3.59-1.72,4.86H980c-2.11-1.59-2.24-3.91-2.45-6.27-1.66-18.08-2.35-36.2-3.16-54.33-.95-21.45-2.53-42.87-3.6-64.31-.79-15.79-1.68-31.58-2.38-47.37-.65-14.8-1.25-29.6-2.6-44.36-.67-7.3-.75-14.64-1-21.94-.91-23.63-2.48-47.21-3.36-70.83-1.08-28.94-2.92-57.85-4.28-86.77q-2.32-49.11-5-98.21c-1.45-25.87-1.93-51.78-3.5-77.64-1.3-21.51-1.85-43.06-3.25-64.57.1-.67.88.25.27,0-.17-.07-.26.08-.24.44,1,17.72,1.89,35.45,2.62,53.18.67,16.21,1.56,32.4,2.14,48.61.31,8.74,0,17.56.85,26.27,1.81,19.28,1.8,38.65,3.19,57.94,1.17,16.44,1.24,32.92,2.33,49.34,1.26,19.11,1.14,38.27,2.73,57.35.76,9.12.63,18.31,1,27.45.71,20.63,1.77,41.25,2.47,61.88.85,24.93,1.89,49.88,3.58,74.8.59,8.63.71,17.29,1.08,25.94,1.19,27.94,2.7,55.86,3.91,83.79.75,17.29,2,34.57,2.21,51.88,0,3.85.89,7.62.89,11.46,0,2.38-.24,4.68-2.35,6.28Z" transform="translate(0)" fill="#fcfcfc"/><path d="M660,70c-1-.81-2.53-1-3.21-2.48,0-3.17.4-6.55-.09-9.8-1.1-7.44-7.44-9.63-13.29-5.1-2.33,1.8-3.33,5.62-7.86,5.31,2.52-11.69-7.58-16.2-13.32-22.82-9-10.43-19.34-19.73-29.13-29.49A18.74,18.74,0,0,1,589,0h18c3.79,2.38,8,4.21,10.23,8.66-.1-3.07-3-6.14.77-8.66H933a13.79,13.79,0,0,1,.17,17.18c-12.48,15.3-25.9,29.79-38.54,45-7.17,8.59-15.14,16.51-22.3,25.11-7.61,9.15-16,17.69-23.18,27.1-4.18,5.45-8.07,11.16-12.82,16.1-8,8.35-16.73,16-27.18,21.27-2.43,1.24-2.06,3.19-1.19,5a23.5,23.5,0,0,0,4.43,6c3.42,3.58,6.75,7.26,10.15,10.85a39.06,39.06,0,0,1,9.82,16.67c1.6,5.63,7.19,9.47,12.47,12.53,1.28.74,3,1,3.57,2.45,4.14,10.23,14,15.66,20,24.27,6.27,9,16.08,14.12,23.26,22.14,10,11.16,19.64,22.65,30.59,32.92A4.25,4.25,0,0,1,924,288c-2.86,1.56-6,.8-9,1-3.53,1.49-5.74-1-7.77-3-9.34-9-17.84-18.84-26.81-28.23-11.84-12.38-22.72-25.66-35.09-37.54-4.69-4.51-8.62-9.7-13.11-14.39-5.31-5.56-6.33-5.94-13-2.42-1.67.87-3.17,1-4.62-.23-1.62-1.32-1.82-3-1.26-5,.76-2.66,3.37-4,4.66-6.71-2.68-1.81-5.26-3.6-6.17-8.34-4,6.66-6.76,14.42-15.31,8.09-7.88,3.63-11.15,1.4-11.52-7.21a51.42,51.42,0,0,0-5.85-21.58c-5.37,1.61-10.67.53-16-.76-1.11,5.05-.44,9.06.34,13.17,1.47,7.67,2.58,15.44,1.85,23.28-.44,4.73-3.8,6.49-7.14,4.09-.93-.67-1.07-2.12-2.48-2.41-2.14.84-3,3-4.25,4.65-5.46,7.08-9.57,15.17-16.24,21.33-1.2,1.11-1,2.77-1.33,4.21-15.59,21.17-29.87,43.26-45,64.75a18,18,0,0,1-2.77,3.54,3.92,3.92,0,0,1-5.8-.18c-5.07-4.82-5.85-12.24-1.36-17.64a97.53,97.53,0,0,0,11.63-17.9,6.7,6.7,0,0,1,3.12-3.12c2.81-1.31,4.43-3.84,6.53-6,6.48-6.48,11.59-13.62,13.71-22.68.26-1.1.82-2.53,1.75-3,8.24-3.74,7.92-12.53,11.12-19.12,2-4.08,3.84-8.37,5.87-13.33-11.41,10.14-20.93,21-30.08,32.11-10,12.21-20.68,23.89-30.75,36.07-3.21,3.89-6.08,3.61-8.54-.8-5.29-9.45-9.41-19.48-14.08-29.24-8.12-17-16.21-33.95-24.14-51-7.44-16-15.33-31.78-22.45-47.93-2.51-5.67-2.06-6.63,3.75-8.68a26.26,26.26,0,0,0,7.15-3.46,11.53,11.53,0,0,1,5-2.21c12.24-2,23.33-7.59,35-11.34,2.12-.69,3.65-2.26,5.54-3.26,3.16-.83,7.54.51,8.18-4.69,1.35-6.08,1.62-6.27,9-6.47,5.87-.16,7.85-1.89,8.22-7,.2-2.81-.73-5-3.38-6.06-6.32-2.41-12-6.38-18.92-7.32C660.8,73.09,659.69,71.91,660,70Z" transform="translate(0)" fill="#e7e7e7"/><path d="M1236,1080h-59c-4.92-2.31-7.92-6.75-11.25-10.67-10.48-12.37-21.83-24-31.77-36.8-1.41-1.81-3.51-1.67-5.08-2.82-3.71-9.34-5.24-19.24-7.4-29-10.65-48.06-20.47-96.29-31.24-144.32-6.13-27.3-11.65-54.75-17.48-82.12q-13.82-64.89-27.61-129.8c-6.24-29.16-12.75-58.27-18.78-87.47-2.16-10.42-4.48-20.82-7.21-31.11a21.37,21.37,0,0,1-.73-5.11c-.47-3.11-.08-6.29-.82-9.41a3.26,3.26,0,0,1,2.08-4.07c1.79-.66,3.08.14,4.33,1.54,5.38,6,10.18,12.85,12.19,20.31,3.39,12.56,11.28,23.63,11.77,37.16.14,4,3,7.67,3.35,10.35-1.11-4.74-3.67-10.55-4.6-16.93-1.27-8.72-5.42-16.68-7.67-25.17-.72-2.72-1.64-5.43-1.21-8.33a3.45,3.45,0,0,1,2.64-3.25,3.15,3.15,0,0,1,3.8,1.67c1.73,3.39,4.5,6.12,5.63,9.94a38.11,38.11,0,0,0,6.3,13c2.72,3.48,2.1,8.28,3.53,10.69-.82-8.73-6.63-17.41-8.54-27.43a131.65,131.65,0,0,0-5.6-20.72c-1.07-2.91-2.32-5.93-1.34-9.21,2.61-4.15,7.4-4.66,11.3-6.66,1.6-.81,3.23,0,4.73.82a19.61,19.61,0,0,1,4.53,3.89c19.39,20.28,39.91,39.43,59.48,59.53q12.69,13,25,26.48c3.13,3.74,3,6,0,9.44-3.79,4.44-9.84,5.24-13.94,9.09-8.81,8.28-19.68,13.68-29.24,20.92A22.72,22.72,0,0,1,1101,627c-1.33,1.22-.73,2.9-1.25,4.27-1,1.9-3,2.52-4.59,3.71-1.33,1-2.75,1.93-3.51,3.48-1,1.93-1.12,3.93.42,5.59s3.45.89,5-.19c5.32-3.73,10.76-7.27,16.14-10.89,4-2.69,7.92-5.53,12-8.16,1.58-1,3.48-1.9,5-.06,1.68,2.1.18,3.74-1.43,5.06a69.15,69.15,0,0,0-15.79,18.52c-12.2,20.72-6.15,44.1,14.84,55.72a17.74,17.74,0,0,1,9.33,12c9.53,36.4,20.27,72.46,30.15,108.77q13.75,50.59,28.28,101c13.82,48.16,27.07,96.48,41.14,144.57C1237.49,1073.53,1239.69,1077,1236,1080Z" transform="translate(0)" fill="#eee"/><path d="M1236,1080c-1.45-11-5.61-21.22-8.55-31.79-10.79-38.82-21.89-77.55-32.8-116.34q-29.16-103.62-58.23-207.26c0-.16-.1-.32-.13-.48-1.34-8.88-5.16-15.08-13.42-20.44-25.24-16.36-23.84-45.94-4.17-67.82,3.08-3.44,6.33-6.76,9.62-10.2l-36.92,25c-3-3.85-3.27-8-3.88-12-.26-1.66,1.35-2.54,2.6-3.38,2.62-1.77,5.26-3.51,7.89-5.27,1.26-4,5.49-4.23,8.31-6.17,7.77-5.34,15.82-10.27,23.92-15.09a37.08,37.08,0,0,0,13.57-8.8c4.16-3,8.75-5.26,13.08-8,1.65-1,3.53-2,5.53-.53,1.78,2.19.8,4-.84,5.67-1.32,1.34-2.61,2.74-2.37,4.73.63,5-2.35,7.51-6.28,9.58-2.39,1.27-5,2.13-7.13,3.91-.9.7-2.13.8-2.87,1.57l.06,0a5,5,0,0,1,2.07-1.06c8.55-5.12,17.32-9.38,27.75-7.45,1,.25,2,.69,3,1,4.27,1.48,8,4.14,12,6.14a6.28,6.28,0,0,1,3.27,7.67c-1.36,5.05-1,10.86-7.82,13.32-2.38.86-4.22,4.29-7.71,5.1.81,6.31,4,11.49,6.26,16.94,14.44,35.1,28.3,70.44,42.76,105.54q27.6,66.94,55,134c17,41.59,34.54,83,51.33,124.67q10.07,25,20.22,50c1,2.4,2.52,4.93-.14,7.32h-31c-2.11-1.57-3.09-3.92-4-6.23-6.15-16.45-11.89-33.06-18.2-49.46-9.69-25.16-19-50.48-28.44-75.73q-18.37-49-36.5-98.05c-6.54-17.76-13.43-35.41-19.81-53.23-7.95-22.2-16.49-44.18-24.42-66.39-9.1-25.47-18.92-50.68-28.14-76.11-.17-.47-.67-.73-.28-.19,2.15,4.64,4,10.6,6.25,16.44,9.77,25.94,19.23,52,28.83,78,7,18.85,14.14,37.62,20.9,56.54,8.28,23.16,17.09,46.12,25.62,69.18,13.39,36.21,27.07,72.32,40.58,108.48,9.45,25.31,19.26,50.49,28.28,76,1.75,5,3.47,9.93,5.54,14.78.82,1.92,2.15,4.1-.25,6Z" transform="translate(0)" fill="#f9f9f9"/><path d="M1920,1064c-12.81-11.21-23.59-24.41-35.54-36.47-6.79-6.84-13-14.22-19.68-21.22-19.81-20.9-39.76-41.66-59.52-62.61-18.72-19.86-37.26-39.89-55.88-59.84s-37.63-40-56.16-60.25q-29-31.68-58.7-62.67c-16.25-16.93-32.23-34.13-48.27-51.26-2.81-3-5.35-6.25-8.83-10.35,10.88,1.76,20.65,3.32,30.41,4.94,36,6,72,12,108,17.94a23.39,23.39,0,0,1,12.54,6.43c14.32,13.19,29,26,43.5,39q19.92,17.77,39.83,35.55c13.55,12.06,27.15,24.05,40.69,36.11,14.64,13,29.19,26.2,43.87,39.21,7.84,6.95,15.85,13.7,23.79,20.54Z" transform="translate(0)" fill="#ececec"/><path d="M1088,1080h-37c-2.66-2.07-2.89-5.23-3.22-8.13-3-25.62-6.29-51.19-9.39-76.8-3.34-27.57-7.77-55-11.19-82.57-.14-1.16-.62-2.25-.71-3.42,1.32-3.05-.45-5.82-.77-8.73-2.14-19.53-4.79-39-7.32-58.47-4.14-32-7.09-64.2-11.38-96.22-4.32-32.33-7.83-64.79-11.75-97.18-2.88-23.8-5.7-47.61-9.1-71.35-4.73-33-8.29-66.08-12.62-99.09q-2.76-21-5.49-42.1a20.76,20.76,0,0,0-2-7.19,4.34,4.34,0,0,1-.07-4.3c1.87-3.38,12.73-5.75,16-3.52,5.14,22.41,7.44,45.31,11.41,67.92,3.09,17.55,6.32,35.07,9.28,52.63,2.24,13.28,3.35,26.83,6.16,39.95,3.61,16.81,4.93,33.89,7.83,50.77q4.71,27.54,9,55.17c1.4,9,4,17.86,5,27,.7,6.75,1.07,13.64,2.36,20.2,2.08,10.58,1.72,21.55,5.29,31.85,1.34,3.86.26,7.92,1,11.86,1.35,6.85,2.7,13.72,3.94,20.57,1,5.63,2.45,11.28,2.54,17.08a21.56,21.56,0,0,0,.82,6.42c5.81,18,7,36.85,10.59,55.26,2.72,13.88,4.75,27.9,6.66,41.92a301.93,301.93,0,0,0,6.6,35.56c-1.56,3.23.6,6.05,1.07,9,2.84,17.72,5.6,35.45,8.53,53.16,2.88,17.38,6,34.71,8.82,52.1C1089.52,1073,1090.12,1076.61,1088,1080Z" transform="translate(0)" fill="#f8f8f8"/><path d="M924,288c-2.85-.85-4.63-3.08-6.72-5-11.19-10.26-19.66-23.11-31-33.09-12.81-11.23-23.86-24.15-35-36.86a114.36,114.36,0,0,0-22.67-19.59c2.73-6.86-.32-11.56-4.71-16.24-5.68-6.06-10.82-12.62-16.17-19-2.42-2.88-3.56-6.27-4.09-10.59,10.57,4.1,15.91-3.67,21.59-9.36,12.31-12.36,23.28-26,35-38.89s23.2-26,34.54-39.23c12.12-14.09,24.84-27.73,36-42.67,2.47-3.31,3.64-6.44,2.4-10.59C932.5,4.8,933,2.32,933,0h16c-16.23,20.48-33.65,39.94-50.9,59.54-14.93,17-30,33.81-44.26,51.37-2.84,3.51-5.51,6.49-4.75,11.38.37,2.33-1.54,4.22-3,5.54-3.27,3-6,6.71-10,8.92-.79,1.89,2,2.1,1.75,3.8-2.95,6.64-4.87,6.87-10.18,1.09-2.55-.14-4.13,1.72-5.92,3.13-2.09,1.64-4,3.53-6.21,5-7.63,5.13-9,5.21-1.15,13.84,3.78,4.18,7.81,8.15,11.83,12.11,3,3,4.64,6.44,6.45,10.25,2.87,6,6.25,12.55,13.47,15.09a5.81,5.81,0,0,1,3.74,3.08c2.8,6.58,7.18,11.61,12.9,16.06,4.21,3.26,7,8.35,10.4,12.64,1.21,1.54,2,3.57,4.39,3.66,4.71-3.74,12.68-2.3,14.56-9.74,4.1.36,5.8,2.81,7,5.62,3,7.12,8.7,12,13.54,17.64,5.6,6.56,12.64,11.65,17.58,18.94,3.68,5.43,9.07,9.69,13.69,14.49s9.64,9.19,13.7,14.54c1.3,1.71,2.71,3.71,5.16,4.2.83-1.67-.16-2.57-1-3.28-6.57-5.88-9.83-14.1-15-20.94a61.7,61.7,0,0,0-6.18-6.46c-5.36-5.28-8.84-12.24-13.9-17.43-6.52-6.67-12.84-13.44-18.77-20.61-8.55-10.33-18.31-19.63-26.21-30.53a33,33,0,0,0-4.67-4.47c-5.72-5.26-8.11-12.52-10.92-19.34-1.65-4,.3-8.88-1-13.29-.48-1.58-.37-3.46-1.87-4.48-3.9-2.64-3.49-6.58-3.16-10.37.41-4.7,3.5-6,7.18-3.12,1.8,1.4,3.31,3.77,6,2.39s2.57-4.06,2.68-6.57c.52-12.28,2.27-14.22,14.33-15.89,4.4-.61,8-1.84,10.5-6.34,2.17-3.84,5.21-7.46,10.31-8.83,3.61-1,6.1-4.44,8.37-7.46,5.17-6.86,9.58-14.37,17.09-19.12a120.54,120.54,0,0,0,10.94-7.86c2.27-1.82,4.76-3.79,8.48-2.21.25,5.41.42,10.32-4.1,15-4.28,4.38-9.54,8.4-10.83,15.19-.26,1.37-2.09,2.49-3.3,3.62-2.26,2.12-4.27,4.07-2.5,7.7,1.19,2.46-.73,4.45-2.39,6.11-10.89,11-20.83,22.87-31.24,34.32-3.77,4.14-4.22,11.52-1.18,16.1,7.62,11.44,18,20.42,26.92,30.74,4.45,5.16,9.06,10.19,13.47,15.39a50.12,50.12,0,0,0,12.37,10.79,23.91,23.91,0,0,1,9.83,12c.57,1.43,1,2.92,2.26,3.8,11.2,8,17.06,20.27,24.71,31.1.48.68.87,1.43,1.88,3.07,34-28,64.91-58,97.31-87,2.79.61,6.21,1.25,9.57,2.09,11,2.74,14,10.63,6.92,19.24-4.62,5.6-9.51,11-15.43,15.5-3.13,2.35-5.63,5.63-8.14,8.72-13.05,16.06-29.36,28.85-43.86,43.45-12.74,12.83-26.1,25.18-40.72,36-5.47,4-10.95,6.23-17.32.93-1.19,4.85,1.8,8,2,12-5.12-.78-7.5,2.42-9.29,6.42-1.63,3.66.65,7.94,4.6,7.87,3.11-.06,4.8,1.33,6.68,3.45,4.08,4.58,8.44,8.9,12.68,13.32,4.74-2,6.77-5.21,6.51-9.26-.23-3.67,1.32-5.91,3.83-8.13,11.68-10.35,23.1-21,35-31.12,10.24-8.71,20.06-18,31.41-25.32a40,40,0,0,0,6.34-5.6c3.16-3.21,6.55-5.7,11.2-4.74,1.61-1.56-1-2.51-.19-3.74,2.8-3.68,8.79-2.29,11-7.3,4,.83,6.37-2,9.26-4.28,8.54-6.84,16.37-14.57,25.72-20.38,1.87,2.61-.29,4-1.8,5.38-9.67,8.9-20,17-29.84,25.71-16.4,14.57-33.28,28.58-49.68,43.15-14.29,12.7-29,24.87-43.29,37.59a55.1,55.1,0,0,0-8.56,9c-3.13,4.44-7.56,4.71-11.1.48-2.46-2.94-5.11-5.68-7.77-8.43-3-3.06-6.11-3.78-9.8-1.36a13.47,13.47,0,0,1-4.12,1.76c-4.29,1.08-6.83-.72-5.94-5.09,1.42-7-1.91-11.56-6.08-16.46-6.43-7.57-14.14-14.24-18-23.77-.67-5.61-1.51-11.2-2-16.83-.53-6.39-1.28-7.11-7.52-6.42C929,288,926.51,287.93,924,288Z" transform="translate(0)" fill="#e7e7e7"/><path d="M1489,1080h-16c-4.52-2.81-6.59-7.59-8.5-12-4.84-11.28-12.29-21.17-16.5-32.85-2-5.4-5.72-10.32-8.33-15.71-3.65-7.6-7.5-15.16-11.3-22.68-6.38-12.66-14.12-24.55-20.4-37.23-4.58-9.25-10-18-14.67-27.23-12.31-24.35-25.36-48.32-38-72.49-11.36-21.67-23.3-43-33.85-65.15-.48-1-1.12-1.93-1.61-2.94,6.38,13.38,13.66,26.29,20.44,39.46,26.59,51.7,53.71,103.13,80.14,154.9,10.68,20.92,21.81,41.6,32.29,62.62,4.16,8.34,8.86,16.42,12.83,24.87,1,2.08,2.42,4.16.48,6.47h-27a11.47,11.47,0,0,1-6-6.38c-.26-.61-.6-1.19-.9-1.79-22.82-46.32-46.53-92.19-69.77-138.29q-25.85-51.3-52.17-102.35c-9.64-18.64-18.91-37.47-28.44-56.16-1.44-2.82-2.77-5.7-5.1-8-.83-4.44-3-8.39-4.77-12.48a4.37,4.37,0,0,1,3.74-4.77,11.38,11.38,0,0,0,4.41-2.23c2.51-1.54,4.86-3.52,8.13-3,2.77,1.64,2.37,3.62.62,5.78-2.39,3-1.55,5.38,1.06,7.8,4.88,4.52,10,7.2,17.12,5.7,6.52-1.36,13.29-.41,19.85.93,4.41.91,7.24,7.11,4.93,12.33-1.84,4.16-.89,7.36,1.07,10.8,22.72,39.95,44,80.66,66.29,120.87,13.46,24.33,26.62,48.82,39.9,73.25q17.28,31.81,34.79,63.52c5.32,9.61,10.11,19.49,15.59,29C1490.42,1076.48,1491,1078.33,1489,1080Z" transform="translate(0)" fill="#f8f8f8"/><path d="M1848,1080l-41.4-47.92q-21-24.33-42-48.68c-12.2-14.06-24.51-28-36.72-42.08-11.66-13.43-23.22-26.94-34.88-40.37q-20.43-23.52-41-47c-2.4-1.45-5.65-1.54-7.15-4.46l-.66-1.3c-5.9-8.72-14-15.56-20.66-23.61-21-25.2-43.23-49.3-64.28-74.44-4-4.76-3.52-6.54,2-9.54,2.78-1.51,5.62-2.91,8.49-4.25,5.35-2.5,6.26-2.26,10.09,2.46a7.52,7.52,0,0,0,2.5,3.26c4.63,5.49,9.44,10.74,16.22,13.74a9.11,9.11,0,0,1,4.46,3.85c2.34,4.94,6.66,8.3,10.21,12.19,14,15.34,27.73,31,41.74,46.34,12.55,13.75,25,27.6,37.21,41.66,10.91,12.55,22,24.92,33.13,37.31,10.78,12,20.88,24.59,31.36,36.86s21.32,24.66,31.89,37.05c14.67,17.2,29.72,34.07,44.28,51.36s29.41,34,43.76,51.23c1.51,1.82,4.09,3.5,1.4,6.3Z" transform="translate(0)" fill="#f8f8f8"/><path d="M1173,610c-10.32-.37-19.53,3.84-29,7-.61-1.14.41-1.48,1-2a13.12,13.12,0,0,1,5.2-4.41c4.79-2.72,8.86-5.65,5.25-11.53,1.64-3.42,6.1-3.31,6.54-7-.6-2.22.33-3.6,2.47-4.09s4.61-1.58,6.86-1.15c5.74,1.11,10.47-.8,14.85-4.17,3.16-2.43,5.49-1.64,8.41,1,8.35,7.45,15.35,16.07,22.49,24.58,1.49,1.77,3.22,3.77,1.31,6.21-1.7,2.19-4.08,1.38-6,.42a41.51,41.51,0,0,0-21.65-5c2.87.26,5.74.08,8.55.51,1.47.22,3.08.16,4.37.93,10.16,6.06,22.72,7.31,31.65,15.8a87.75,87.75,0,0,1,9.47,10.84,169.38,169.38,0,0,0,19,20.92,13.07,13.07,0,0,1,2.47,2.78c-.38,5,1.89,8.68,5.29,12.3,11.23,12,22.17,24.2,33,36.57a25.72,25.72,0,0,1,3.36,5.29c1.9,3.74,1,6.19-2.44,8.8-4.61,3.51-9.41,6.41-16.11,5.61,1,6.86-3.32,10.13-7.35,13.59-1.6,1.38-3.27,2.35-5.41,1.14-2.47-2.3-.91-4.57.14-6.78,3.8-8.05,4-9.33-2.16-15.34-9.35-9.2-17.31-19.67-27.32-28.3-4-3.41-6.55-8.53-11.25-11.47a4.3,4.3,0,0,1-.53-3c1.38-4.31,3.94-7.36,8.59-7,.14-1.37.06-1.86-.21-1.9-5.89-.85-7.5-4.75-7.88-10.09-.2-2.8,0-6-2.2-8.62-2,4.71,1.41,9.85-1.92,14.09-3.35,1.57-4.88-.57-6.2-3.07-1.47-2.77-2.56-5.71-5.65-7.34a4,4,0,0,1-2-4.32c1.7-7.29-3.7-9.51-8.49-12.15a9.92,9.92,0,0,0-4.72-1.29c-1,.83-.16,2-.57,2.83a11.19,11.19,0,0,1-1.43,2.66c-4.29,3.79-8.57,4.75-13,.1-.53-.57-1.57-.41-2.34-.71-1.44-.59-2.85-1.12-3.44-.21,5.13,21.72,15,41,23.21,60.86s16.66,40,24.91,60c24.68,59.9,50.53,119.31,75.46,179.1,15.65,37.5,32.3,74.57,47.64,112.19,2.57,6.32,5,12.69,7.58,19,.88,2.18,1.24,4.17-.91,5.82h-11c-4.11-10.54-8.1-21.13-12.35-31.62q-14.26-35.15-28.77-70.22c-7.67-18.61-15.52-37.16-23.18-55.78-9.93-24.17-19.72-48.4-29.62-72.58q-22.21-54.31-44.47-108.61c-10.19-25-20.24-50-30.39-75-2.88-7.09-5.89-14.12-8.8-21.19-.5-1.21-1.18-2.43-.74-3.83,1.09-2.48,3.78-1.69,5.6-2.68.39-1.85-2.32-1.23-2.15-3.1.17-1,1.25-1.31,2.2-1.28,7.16.25,9.11-4.48,10.2-10.3.61-3.23-.11-5.41-3.22-6.92-3.56-1.73-7.29-3.23-10.31-5.91C1174.69,610,1174.25,609.19,1173,610Z" transform="translate(0)" fill="#ececec"/><path d="M1281,749c-2,2.44-6.46,1.91-7,6,.49,4.2,2.75,7.6,5,11,1.87,1.31,2.65,3.38,3.62,5.3q22.88,45.23,45.75,90.45c22.72,44.84,45.24,89.78,68.32,134.43,14.37,27.8,28.08,55.94,42.29,83.82h-27c-4.08-2.13-5-6.37-6.79-10.07-11.9-24.34-23.37-48.9-34.91-73.4-17.51-37.14-35.55-74-52.83-111.28-7.07-15.23-14.48-30.32-21.72-45.48q-20.46-42.84-40.92-85.68a25.68,25.68,0,0,0-2.23-4.6c-2.32-7.21-7.28-13.23-9.24-20.59a22.73,22.73,0,0,0-2.87-5.8,47.16,47.16,0,0,1-2.89-5.61,70.05,70.05,0,0,0-5.08-14.28c2.52-3.79,5.32-3,6.81-.18,2.74,5.21,7.13,9.29,8.75,15.41,1.49,5.63,6.44,9.86,9.19,15.18,2.32,4.5,4.49,9.21,7.85,13,2.11.28,3.17-1.27,4.62-2s3.08-.38,4.63-.49a16.74,16.74,0,0,0,4.48,1.54C1280.88,745.86,1281.71,747,1281,749Z" transform="translate(0)" fill="#eaeaea"/><path d="M1408,1080h-24c-2.66-1.43-3.86-4-5.07-6.55-14-29.83-26.85-60.18-40.33-90.24q-18.9-42.12-37.8-84.24-18.54-41.19-36.83-82.51c-12.1-27.39-24.4-54.7-36.57-82.07-7.77-17.49-15.39-35-23.12-52.55-1-2.19-2.42-4.45-1.53-7.12,5.21-4.81,13-2.68,16.17,4.92a45.54,45.54,0,0,0,6.41,11c4.46,6.51,7.14,13.94,10.14,21.1,3.54,8.44,7.62,16.62,11.46,24.9,11.9,25.64,24.26,51.08,36.39,76.61,10.41,21.9,20.87,43.78,31.18,65.72s20.93,43.83,31.3,65.79c17.27,36.59,35.14,72.9,52,109.7,3.07,6.7,6.1,13.46,9.52,20C1408.13,1076,1409.61,1077.93,1408,1080Z" transform="translate(0)" fill="#ebebeb"/><path d="M1204,675c15.83,35.94,31.58,71.91,47.52,107.8,13.44,30.27,27.13,60.42,40.68,90.64q14.18,31.65,28.29,63.33c12.18,27.17,24.48,54.3,36.6,81.5,8.46,19,16.26,38.29,25.38,57A34.16,34.16,0,0,1,1384,1080h-22c-2.77-10-7.11-19.36-11.07-28.85-12-28.88-24.57-57.56-36.8-86.35q-28.7-67.54-57.23-135.17c-14.05-33.44-27.75-67-41.69-100.53-10.1-24.27-20.34-48.48-30.53-72.72-.89-2.13-2.41-4.19-.1-6.78-4.22-1.08-4.72-4.81-7-8.41,4.12-.73,7.3-3.56,11.37-1.18,6.11,8.29,10.22,17.65,14.25,27C1204.33,669.57,1205.93,672.14,1204,675Z" transform="translate(0)" fill="#f9f9f9"/><path d="M25,379,0,382V347c.85-1.88,2.66-2.37,4.36-3,18.1-6.83,36.34-13.25,54.47-20q48.63-18.06,97.51-35.47c25.79-9.13,51.53-18.45,77.3-27.66,27.49-9.83,55-19.61,82.35-29.83a10.86,10.86,0,0,1,3.84-1,3,3,0,0,1,3.34,2.95c.18,2-1.11,3.13-2.69,3.81-8.22,3.57-16.45,7.08-25.3,8.86-6.28,1.26-11.66,4.82-17.48,7.26q-15.61,6.56-31.73,11.64c-.48.15-1.1.14-1.41.47-5.78,6.29-14.32,5.06-21.37,7.87-1.56.62-3.25,1.08-4.27,2.45-2.19,2.94-5.14,4-8.66,4.14a5.92,5.92,0,0,0-5.94,4.43c-1.15,3.57-3.55,5.27-7.47,5.31-6.8.06-15.34,6.45-17.26,12.88-1,3.29-3.1,5.34-5.8,7.15-7.8,5.23-16.56,8.47-25,12.32-4.67,2.12-9.12,4.58-14.35,5.49-4,.69-6.2,4.79-9.89,6.53-9.17,4.35-18.33,8.75-27.53,13-14.48,6.74-28.9,13.63-43.34,20.44C44.27,371.5,35,376.05,25,379Z" transform="translate(0)" fill="#ededed"/><path d="M1489,1080c-3.54-7-6.92-14-10.64-20.86-11.61-21.36-23.36-42.64-35-64q-27.21-49.71-54.39-99.46c-14-25.59-27.81-51.23-41.76-76.83-6.35-11.65-12.81-23.25-19.21-34.88-.64-1.15-1.55-2.2-1.44-3.65.14-1.29,1.23-1.91,1.91-2.83,3.27-4.34,1.23-9.58-4.06-10.52-6.61-1.18-13.32-1.91-19.84-.15-7.08,1.92-16.47-5.55-19.35-9.57-2.25-3.14-2.29-6.19,1.5-8.46,1-.6,2-1.39,1.32-2.85-1.2-3.3,1.25-4.24,3.48-4.6,3.48-.58,7.07-1.25,10.53.36,3.79,1.77,7.34,1.11,10.92-.79,5-2.62,9.73-5.64,15-7.64,3.18.48,6,1.31,7.73,4.58a6.71,6.71,0,0,0,3.79,3c4.46,1.56,5,5.42,5.42,9.26.31,2.89-1.84,4-4.08,4.95-4.61,2-9.28.56-13.89.21-4.09-.31-8.14-.18-12.52-.19,8.09-.1,15.71-.05,23.35,2.5,5.75,1.92,12.13,1.5,18.22,2.16,3.62.4,6.38,1.57,8.62,4.24,1,1.14,1.85,2.36,2.81,3.5,4.45,5.29,7.11,10.84,2.45,17.42-.48,5.28-1,10.56-3.37,15.43-1.13,2.33-2.41,4.46-5.57,3.83-2.78-.88-4-3.7-6.45-5.08q-1.92-2.3-3.61-4.76c-.86-2.33-3.56-1.46-4.95-2.84s-2.78-2.88-2.91-4.8c-.13,2.63,3,3.87,3.36,6.52-.12,4.15,2.72,7.11,4.5,10.38,9.4,17.24,19.42,34.12,28.63,51.48,9.08,17.12,19.31,33.65,28.74,50.6,11,19.7,22.56,39,33.52,58.71,9.66,17.36,19.82,34.46,29.42,51.84,9.14,16.56,18.8,32.85,27.43,49.69,1.71,3.33,4,6.32,5.49,9.79.59,1.4,2,2.56.92,4.31Z" transform="translate(0)" fill="#e9e9e9"/><path d="M1878,1080c-3.23-6.09-8.32-10.74-12.65-15.94-13.28-16-26.55-32-40.52-47.37-11.06-12.15-21.36-24.93-32.45-37.06-13.1-14.34-25.36-29.46-37.86-44.34-15.08-17.95-30.26-35.79-45.92-53.24-18-20-35.47-40.54-53.73-60.32-10.83-11.73-21.1-24-32.1-35.53-6.88-7.22-13.46-14.73-20.11-22.16a14.75,14.75,0,0,1-1.66-3,24.93,24.93,0,0,0-8.52-7.12c-3.82-1.84-6-6.36-8.29-9.9-5.62-8.49-12.58-16-17.82-24.74-1.42-2.36-2.44-4.44.63-6.24,8.5,9.11,17,18.19,25.51,27.34,5.42,5.86,10.66,11.88,16.1,17.72,19.4,20.81,38.92,41.5,58.26,62.36,18.76,20.25,37.36,40.66,56,61q27.48,30,55,59.94c20.28,22,40.74,43.89,60.92,66q24.4,26.72,49,53.19c5.86,6.33,12.24,12.27,17.17,19.44Z" transform="translate(0)" fill="#ececec"/><path d="M1088,1080c-2.6-15.56-5.26-31.12-7.8-46.69q-5.87-35.92-11.59-71.87c-.34-2.13-.41-4.29-.61-6.44,3.15-1.94,4.68.79,6.18,2.48q11.41,12.87,22.69,25.88c7.16,8.27,14.66,16.25,21.39,24.89,1.58,2,4.88,2.46,5.15,5.66,4.36,19.91,9,39.75,13,59.75.45,2.27,1,4.64-1.37,6.34Z" transform="translate(0)" fill="#f1f1f1"/><path d="M972,1080c-1.29-24.74-2.62-49.47-3.83-74.21-.39-8-.63-15.95-1-23.92-1.34-26.41-1.92-52.85-3.25-79.26-1.07-21.43-2.34-42.83-3-64.28-.71-24.43-1.81-48.85-3-73.27-1.16-24.25-2.1-48.51-3.13-72.77-.94-21.92-1.78-43.86-2.91-65.78-1.25-24.08-2.31-48.16-3-72.27-.75-24.75-2.57-49.47-3.76-74.21q-.86-17.94-1-35.92c0-3.63-2.17-7.35,0-11.5,2.82,2.49,3,5.33,3.17,8.32q1.21,25.4,2.59,50.78c.67,12.29,1.61,24.56,2.14,36.85.82,18.78,1.2,37.58,2.13,56.36,1.31,26.56,2.88,53.12,4.21,79.69,1.26,25.4,2.27,50.82,3.82,76.21,1.63,26.55,2.81,53.12,4,79.7.82,18.6,1.77,37.2,3,55.78,1.29,19.24,2.07,38.51,3,57.77,1.23,25.25,3.12,50.45,4.06,75.72.87,23.42,2.53,46.81,3.84,70.21Z" transform="translate(0)" fill="#f8f8f8"/><path d="M1029,909c1.34,9.69,2.55,19.4,4,29.07,5.91,38.78,10.51,77.72,15.11,116.67,1,8.42,2.55,16.77,2.86,25.26h-15c-1.89-1.44-2.26-3.49-2.45-5.71-.51-5.93-1.22-11.84-1.09-17.81.1-4.74-1.41-9.21-3.36-13.4-3.46-7.44-5.39-15.39-8.1-23.08-1.14-12.54-2.15-25.1-3.46-37.62-2.07-19.62-4.31-39.21-6.55-58.81-1.43-12.51-1.89-25.13-4-37.57,2.26-1.54,3.88-.07,5.14,1.41C1018.07,894.37,1025.49,900.17,1029,909Z" transform="translate(0)" fill="#f2f2f2"/><path d="M1135,1080q-7-33-14-66c-4.23-6.18-5.52-13.37-7-20.48-12.85-63-26.55-125.81-39.65-188.75-11.94-57.4-24.42-114.68-36.29-172.1-12.85-62.15-27-124-40.1-186.1-1-4.73-1.72-9.5-2.86-14.2-.65-2.7-1.17-5.63,1.28-8,3-1.09,4.36.5,4.92,3.17,4.37,20.72,10,41.17,13.51,62.07.7,4.16,2,8.18,2.65,12.39.9,6,1.09,12.07,2.51,18,1.26,11,4.54,21.48,6.87,32.21,10.8,49.8,22.19,99.48,32.62,149.36,10.3,49.23,21,98.37,31.77,147.49,6.35,28.95,13,57.83,19.16,86.81,6.29,29.65,12.43,59.32,19.26,88.85.33,1.45.88,2.85,1.32,4.27,2.06,1.41,2.91,3.56,3.41,5.85,2.82,12.62,5.7,25.22,8.2,37.9.52,2.66,1,5.3-1.61,7.25Z" transform="translate(0)" fill="#f8f8f8"/><path d="M1361,802c2.75.57,2.88-1.84,3.5-3.34A32.8,32.8,0,0,0,1367,784c3.5-3,7.38-2.87,11.23.58,2.71,2.42,4.62,5.53,6.77,8.42.85,1,1.85,2,1.45,3.88-5.81,5.85-14.84,7.23-21.48,13,4,6.78,7.89,13.14,11.66,19.54q22.8,38.75,45.59,77.48c16.94,28.67,34.07,57.23,51,85.93,17,29,33.9,58.11,50.83,87.17h-16c-4.41-3-6-8-8.41-12.36-10.25-18.18-20.34-36.44-30.66-54.57-5.27-9.28-10.82-18.41-16.11-27.68-.81-1.41-2-2.74-1.68-4.57,2.09-2.17,2.49-4.35.83-7.14-2.36-4-1.24-9.14-4.57-13-5.56-6.4-8.18-14.46-12.05-21.81a132.19,132.19,0,0,0-10.73-17.11,38.9,38.9,0,0,1-2.36-3.72c-2.39-10.51-10.16-17.89-15.53-26.68-.21-.42-.42-.85-.64-1.27-4.09-7.75-8.82-15.15-12.45-23.15a17.38,17.38,0,0,0-4-5.6c-2.65-2.51-4.93-5.24-5.26-9.24-.26-3.19-3.24-4.9-4.94-7.31-3.35-4.71-7.54-8.82-10.12-14.1-.68-1.41-1.78-2.38-3.57-1.87-4.74-3.82-6.54-9.52-9.34-14.58,1.71-4.34-1.52-9.91-7.28-12.57-1.42-2.53-3.47-4.75-3.86-7.79,2.43-1.6,4.58-5.54,7.75-.92l3,4A17.51,17.51,0,0,1,1361,802Z" transform="translate(0)" fill="#e7e7e7"/><path d="M1466,1080q-43.11-83.7-86.22-167.41-22.54-43.73-45.18-87.39L1315.36,788c-.46-.88-1.08-1.71-.52-3.07,2.35-1.08,3.48.88,4.59,2.34a70.24,70.24,0,0,1,6.57,11.28c8.5,17,17.68,33.58,26.57,50.34,7.79,14.7,15.43,29.48,23.31,44.13,9.92,18.43,19.53,37,29.26,55.57,8,15.14,17.38,29.5,24.39,45.17,3.55,7.94,9.5,15,12.07,23.14s9,14.1,11.18,22.52c1.77,7,7.4,12.5,10.21,19,3.14,7.29,7.85,13.83,10,21.54Z" transform="translate(0)" fill="#eaeaea"/><path d="M1408,1080q-31.55-66.57-63.1-133.12c-10.63-22.41-21.44-44.74-32-67.17q-31.44-66.62-62.71-133.3c-7.51-16-14.94-32-22.46-47.93-1.06-2.24-2.47-4.32-3.71-6.48-1.76-1.26-2.1-3.31-2.83-5.13-4.16-10.34-11.8-18.8-15.75-29.28-1.3-3.46-5-5.75-4.78-10.09.1-1.71-.13-3.29,1.35-4.49.33-.67.67-1.35,1-2,2.55-1,3.26,1.08,4,2.63,8.46,18.19,18,35.91,25.4,54.53,2.41,6.08,5.33,12.25,6.64,18.83l3,5c2.19,1.41,2,4,3,6,1.6,7.59,6.72,13.69,9,21,1.31,1,2.32,2.14,2,4q30.13,63,60.28,126.09c14.51,30.3,29.17,60.53,43.61,90.86q26.17,55,52.09,110.07Z" transform="translate(0)" fill="#f8f8f8"/><path d="M1316,1080c-2.22-9.61-6.19-18.64-9.59-27.83q-29.94-81.11-60.22-162.09-17.48-47.07-34.82-94.21-24.6-66.82-49.13-133.68c-1.91-5.22-5.21-10-5.72-16.56,3.2,2.85,2.34,7.89,7,8.5-1.44,2.28-.81,4.06-.09,6q21.88,58.77,43.66,117.58,30,80.52,60,161,24.86,66.45,49.9,132.84c1,2.79,2.87,5.31,3,8.43Z" transform="translate(0)" fill="#e9e9e9"/><path d="M1141,1080c-1.42-13.51-5.52-26.49-8-39.81q-1-5.6-2-11.19c2.46-.75,3.71,1.09,5,2.52q15.58,17.71,31,35.55c3.55,4.13,7.8,7.74,10,12.93Z" transform="translate(0)" fill="#f1f1f1"/><path d="M320,231c-10.84,3.74-21.73,7.36-32.52,11.25Q233,261.87,178.56,281.66q-63.34,23-126.64,46.15C34.59,334.14,17.31,340.6,0,347v-3C11.46,340,22.93,336,34.36,331.83q55.46-20,110.86-40.06Q197.15,273,249.09,254.39c42.16-15.15,84.34-30.19,126.45-45.45C391,203.32,406.79,198.4,422,192c2.92-1.8,6.24-2.52,9.38-3.84,2.46,2.55,1.46,4.35-.92,5.57a26.77,26.77,0,0,1-8.91,2.65c-4.3.66-8.11,2.57-11.9,4.57-11.23,5-23.17,8.06-34.59,12.55-5.85,2.3-12.15,3.51-17.45,7.17-11.74.49-21.69,6.81-32.61,10C323.38,231.58,321.64,230.64,320,231Z" transform="translate(0)" fill="#f8f8f8"/><path d="M1357,814c3.25,4.52,4.93,10,9,14,2,0,2.56,1.62,3.35,2.9,5.31,8.58,9.82,17.61,14.54,26.52,1.11,2.11,3.52,3.13,4,5.57q12.25,22.2,25.17,44c3.1,5.28,5.68,10.87,9.41,15.77,2.1,6.37,7,11.33,8.92,17.84,1.37,4.6,4.92,8.06,7.5,12a29.75,29.75,0,0,1,3,5.75c2.67,6.26,7.45,11.36,9.67,17.88.56,1.62,1.26,3,.38,4.7,4.88,8.62,9.73,17.26,14.62,25.87q16,28.12,32,56.23c3.18,5.62,6.31,11.27,9.46,16.9h-3c-10.67-19-21.29-38-32-57-9.42-16.64-19-33.17-28.48-49.8-6.16-10.85-12.08-21.83-18.24-32.68-13.88-24.45-27.91-48.82-41.76-73.29-12.12-21.43-24.09-43-36.09-64.46-1.62-2.9-3.06-5.9-5.72-8,.3-1.29,1.56-1.15,2.32-1.7.64,0,.71.61,1,1l4,7C1353.7,804.61,1357.92,807.92,1357,814Z" transform="translate(0)" fill="#fafafa"/><path d="M1021,1020a6.71,6.71,0,0,1,2.61,2.92c2.49,6,4.88,12,7.51,17.89,5.6,12.59,3.78,26.06,4.88,39.19h-9Z" transform="translate(0)" fill="#f8f8f8"/><path d="M618,0c.34,5.21,3.46,9.72,3.65,15.19A53.11,53.11,0,0,1,607,0Z" transform="translate(0)" fill="#ededed"/><path d="M320,231l4-2c1.74,1.93,3.55.79,5.34.12,9.32-3.46,18.65-6.9,27.66-11.13,7.36-4.43,15.78-6.16,23.69-9.17,9.33-3.56,18.86-6.57,28.31-9.82,4.83,1.15,8.46-1.29,12-4l10-4.3-.33-.94L422,192c2-2.43,5-3.24,7.68-4.51,14.68-7.08,29.82-13.28,44.13-21,20-10.85,41.58-18.34,61.57-29.17,1.56-.85,3.52-1.17,4.56-3.32-3.87-4.38-7.85-8.79-11.72-13.3-3.13-3.64-2.65-5.43,1.95-7.88,2.26.81,2.45,2.92,2.86,4.84.62,2.87,2.34,4.66,5.26,4.06,3.75-.75,7.18-.75,10,2.16,2.08-2.54.44-3.72-.86-4.46-5.29-3-7.67-7.09-5.88-13.22.7-2.4-2.56-5,.89-7.89,3.91,2.48,6.81,8.2,13.07,5.83-3.24-7.36-1.75-16.33-8.3-23.09-3.65-3.77.75-12.1,6.44-13.77,6.52-1.93,12.64-4.46,16.53-10.52.26-.4.67-1,1-1,6.18-.31,11.69-5.35,18.43-2.55,7.54-5,15.46-2.1,23.4-.86,4.59.71,8.26,1.88,9.3,7.2,1.29,6.64-4.44,18.29-10.7,20.85a8.81,8.81,0,0,0-5.88,8c-.17,3.13,2.1,5.06,5.24,5.69,1.43,1.68.45,3-.53,4.46a146.9,146.9,0,0,0-9.85,15.61c-1.59,3.05-3.88,4.16-6.83,1.66-3.95-3.36-8.44-2.39-11.46.31-7.41,6.62-16.79,9.36-25.15,14.06-2.71,1.53-5.73,2.53-8.26,4.61,1,1.8,2.35,1.23,3.51.89,8.45-2.48,16.71-5.5,25-8.6a146.16,146.16,0,0,1,22.58-6c3.4,2.39,6.82,2.34,10.76,1,11.27-3.91,22.46-8.07,33.73-12,1-.34,3.19,0,2.52-2.34-2.43-2.08-4.81-.55-7.1.14s-4.41,1.51-5.6-1.14,1-3.87,2.88-5c5.1-3,10.69-4.58,16.36-6,9.51-2.35,13.34-9.61,10.14-19.11-.5-1.49-2-2.85-.67-4.61,8.06,1.48,15.06,5.81,22.67,8.49,1.78.63,2.1,2.43,1.83,4.21-.3,2-.51,4-1,5.87-1.5,6.37-2.56,7.06-9.07,6.54-3.51-.28-7.16-.7-8.46,3.89,1.34,1.81.18,2.29-1.31,3.12-2.51,1.41-5.59,1.69-7.69,3.88-11.12,5.4-23,8.71-34.58,13-7.15,2.66-14.35,5.19-22.79,8.23l64.25,135.84c23.66-25.75,43.55-53.37,68.72-76.47,2.15,2.86,1.24,4.42.58,5.89-2.88,6.34-5.79,12.68-8.8,19a16.64,16.64,0,0,0-1.46,5.76c-.31,3.12-1.33,6.05-4.37,7.39-4.54,2-6.28,5.88-7.17,10.19a22.17,22.17,0,0,1-7.72,13c-4.67,3.88-6.68,10.24-12.84,12.93-2.55,1.11-2.73,5.1-4.52,7.58-3,4.15-5.77,8.45-9,12.49-3.44,4.33-2.45,8.18,2.56,14.24,2.24-.11,2.76-2.16,3.74-3.57q21.14-30.33,42.18-60.7c1-1.35,2.12-2.55,3.19-3.81,1.14-.92,1.81-2.44,3.43-2.73a6.4,6.4,0,0,1,2.36,10.37c-4.79,4.92-7.52,11.44-11.9,16.22-6.49,7.08-10.28,15.87-17,22.82-4.64,4.83-7.06,11.89-10.35,18-1.33,2.48-2.45,4.94-4.67,6.91s-3,5.08-3,8.19c-.49,1.16-1.35,2.09-1.94,3.19-2.41-.13-3.57-1.2-3.41-3.82s-.82-4.53-3.26-5.4a2.9,2.9,0,0,0-2.71,2.13c-2.7,6.63-7.71,9.56-14.73,9.85-9.85.4-19.69,1.7-29.87-.67,6.68-3.58,8.9-11.28,15.63-14.91,3.67-2,5.26-6.65,6.55-10.87,1.61-5.26,3.12-10.61,8.68-13.4,1.45-.73,2.24-2,.34-4-5.22,3.8-9.46,8.64-13.49,13.58-8.09,9.92-16.29,19.73-24.81,29.27a17.86,17.86,0,0,1-12.16,6.09c-29,2.73-57.93,5.4-86.89,8.23-25.31,2.48-50.6,5.22-75.91,7.7-8.11.79-16.29-.21-24.42,1.14-33.43,5.57-67.24,7.93-100.88,11.8-31.87,3.67-63.87,6.16-95.8,9.37-27.13,2.74-54.2,6-81.35,8.54-14.22,1.31-28.45,2.67-42.68,3.81-14.87,1.19-29.74,3.26-44.6,4.94C50.51,376.84,37.74,377.82,25,379c9.57-7.18,21-10.74,31.51-16.06,14.09-7.14,28.6-13.45,42.91-20.17,7.84-3.67,15.62-7.46,23.43-11.19,2.41-1.16,4.75-2.4,6.32-4.71a6.06,6.06,0,0,1,3.66-2.46c14.29-3.54,27.17-10.29,39.87-17.48,2.52-1.42,4.38-3.26,4.43-6.16.06-3.66,2.1-5.7,4.92-7.5,3.74-2.4,7.87-4.28,10.32-7.83,8.72,1.79,8.81,1.73,9.88-6.29.24-.22.48-.63.73-.64,10-.48,16.94-8.68,26.49-10.31,1.78-.31,3.43-1.09,5.34-.8.93.14,2.35.21,2.84-.33,6.84-7.52,17.11-7.32,25.56-11.14,7.17-3.25,14.88-5.7,21.94-9.23,6.8-3.39,14.38-3.78,21.15-7,4.06-1.91,8.38-3.24,12.55-4.89C320.77,234.08,322.39,233.1,320,231Z" transform="translate(0)" fill="#efefef"/><path d="M1263,660a148.28,148.28,0,0,1-18.5-18.75c-6.36-7.9-13.25-15.07-22.52-19.71-5.06-2.53-10-4.27-14.94-2-2.32-1.51-1.14-3.65-2.73-5.45-6.31-2.26-13.82-2.11-20.59-6,5.64,0,11.27-.12,16.9,0s10.38,4.06,15.92,5.38c.68-2.47-.72-3.84-1.86-5.12-6.51-7.32-13.19-14.5-19.65-21.87-2.85-3.26-5.51-3.75-8.92-.92-4,3.28-8.23,5-13.8,3.88A11.9,11.9,0,0,0,1162,592l-17,10c-5.52,1.18-9.91,4.32-14,8-10.51,7.49-22.09,13.2-33,20-1.2-2.25.21-3.53,1.9-4.4,13.35-6.88,25-16.29,37-25.1,3.35-2.45,6.87-4.63,10.06-7.35,2.77-2.35,3.19-4.42,1-7.16-1.26-3.5,1.19-4.67,3.7-5.11,4.19-.73,7.28-3.29,10.39-5.7,4.19-3.24,4.32-6.12,1-10.14-7.72-9.38-16-18.32-24.31-27.13-19-20.06-37.48-40.58-56.45-60.66-2-2.13-3-4.38-2.36-7.22.53-2.5.06-4.64-2-6.28-8.13-6.5-13.14-15.8-20.68-22.89-3.86-3.64-7.62-7.43-11.65-10.89a118.45,118.45,0,0,1-9.4-8.93c-8.21-8.78-18.07-15.13-28.9-20.11-2.39-1.09-4.74-1.6-7.05.23a5.07,5.07,0,0,1-4.78.65c-4.33-1.29-8.85-1.45-13.27-2.23-3.51-.62-5-2.1-4.35-5.29-3.57-1.06-6.86-.05-10.17.89-4.25-1.61-8.45-1.07-12.77-.16-6.16,1.31-8.73-.83-8.14-6.92.29-3-.67-6.27,1.16-9.1l2-3c-.34-.86-.69-.2-1,0l-2,1c-1.18-12.74-2.55-25.45-3.47-38.21-.67-9.28-2.65-18.43-2.53-27.78,4.84,3.89,8.44,8.94,12.52,13.52,3.2,3.59,5.91,7.62,9.42,11,4.28,4.1,6.15,9,4.69,14.93a4.1,4.1,0,0,0,.19,3.43c2.58.95,4.48-.6,6.45-1.72,6.08-3.44,7-3.38,12,1.71,2.8,2.84,5.46,5.82,8.15,8.77,2.29,2.5,4.64,3.36,7,.23,7.57-9.89,17.74-17,26.86-25.25,12-10.79,24.17-21.33,36.34-31.88,10-8.69,20.33-17.15,30.3-25.92,14-12.28,28.79-23.63,42-36.79l3-3c4.15-3.41,8.29-6.85,12.24-10.48,1.14-1.05,2.13-1.94,3.76-1.52,2.39.54,4,2.08,5.52,3.92,6.6,7.83,11.57,16.86,18.29,24.59,1.15,1.32,1.37,3,1.64,4.6.26,3.71-1.18,7-2.82,10.16-6,11.62-11.28,23.63-17,35.39-.82,1.67-1.48,3.37-3.56,3.79-6.53-.83-7,5.23-10.23,8.74,2-.3,3.59-1,5,.39,1.92,2.33.45,4.48-.6,6.45-5.74,10.83-9.31,22.79-17,32.6-1.33,1.7-1.73,3.95-2.74,5.86-3.17,6-5.69,7-11.56,5.44,6,.46,11.25,5.39,17.79,6.94a3.4,3.4,0,0,1,2.63,2.72c.2,1.89-.77,3.06-2.25,4.11-3.52,2.51-6.54,5.7-10.07,8.18-12.82,9-23.79,20.27-36.51,29.42-6.73,4.84-12.89,10.49-19.94,14.95-2.61,1.66-2.91,4-.87,6.35s3.93,4.95,6.06,7.29c2.8,3.07,5.88,6.07,7.41,10,4.38,11.18,12.39,19.63,20.62,27.88,13.86,13.9,27.4,28.12,40.39,42.8,8.24,9.32,16.75,18.51,23.93,28.75a55.14,55.14,0,0,1,5.06,9.73c.66,1.51,1,3.2,2.09,4,.7.41,1.08.66,1.34.55,6.74-3.06,11.8-.08,16.47,4.46,2.11,2,4.27,2.09,6.7.28,14.94-11.13,30.63-21.18,46.06-31.6,18.2-12.29,36.21-24.85,54.51-37,2.22-1.48,4.37-3.42,7-.79,1.17,1.81,1.07,3.81.73,5.77-2.19,12.7-4.3,25.43-6.8,38.08-.91,4.57-.68,9.24-1.78,13.76-.39,1.58-.21,3.35-1.74,4.46a2.61,2.61,0,0,1-1.44.35,5.12,5.12,0,0,1,1.11,1.06c.9,4.54-.66,8.81-1.53,13.14-.55,2.75-1.27,5.48-1.68,8.25-1,7.07-6.48,10.78-13.62,9.14-3.33-.76-4.68.46-5.09,4.72-.26,2.74.32,5.82-3.15,7.12-4.06,2.33-5.52,1.78-6.64-2.52-.17-.64-.17-1.33-.39-2-1.15-3.27-2.81-6.17-6.63-6.59-3-.34-8.55,3.52-9.53,6.3-1.18,3.36,1.39,7.08,6.41,7.69,6,.73,11.87-.83,17.43-3.3,2.55-1.41,3.63-4.19,5.74-6a12.5,12.5,0,0,1,6.48-3.29c2.15-.33,4.34-.34,5.78,1.74a4.49,4.49,0,0,1-.16,5.89c-2.51,1-5,2-4.53,5.77.47,1.44,3,1.11,3.45,2.94.24,3.65.21,7.25-2.13,10.38-3.23.37-5.71,2.38-8.45,3.86-7.46,4.06-9.55,3.56-14.2-3.19-.45-.66-.55-1.61-1.49-1.94-2-.52-3.13,1.63-4.93,1.77-3,.87-5.12,3-7,5.32-.89,3.21.72,5.37,3.1,7.06a18.21,18.21,0,0,1,4.27,4c1.19,2.88,3.18,5.41,3.58,8.61A3,3,0,0,1,1263,660Z" transform="translate(0)" fill="#e7e7e7"/><path d="M688,309c0-4.44,3.11-7.58,5.34-10.81,4-5.85,6.73-12.4,10.84-18.25,6.25-8.89,12.15-17.94,19.17-26.32,4.94-5.9,7.93-13.35,13-19.35,1.26-1.49.79-3.8.09-5.54-1.77-1.32-3,.15-4.44.27.8-3.95,3.78-6.62,5.91-9.75,5.16-7.56,10.56-14.95,16-22.35,1-1.44,2.09-3,4-3.76,2.62,2-.41,6.13,4.19,8.5,2.74-14.77-2.06-28.35-3.62-42.28a13,13,0,0,1,8.84.42c4.44,1.6,8.46,2.12,11.18-2.6,2.36.48,2.51,2.37,3.13,3.82,3.28,7.69,6,15.55,6,24,0,2.25.09,4.65,2.6,5.4,3,.89,3.46-1.73,4.22-3.74a2.61,2.61,0,0,1,2.11-2c2.71.63,1.91,3.58,3.27,5.13,5.32,1.75,6.43.47,9.5-11,2.78-1,4.3.51,5.25,2.91,2.21,5.56,2.18,5.57,7.45,7.12,1.73,2.93.57,4.79-2.36,6.15-2.73,1.27-4.62,3.13-4,6.31,1.1.86,1.92.6,2.49,0,5.63-6.31,8.62-4.89,14.89,1.64,16.23,16.91,31.94,34.31,47.89,51.47,9.86,10.61,19.79,21.14,29.66,31.73,1.27,1.35,2.43,2.78,4.47,2.89-8.61,2-17.45,1.93-26.18,2.92-18.5,2.09-37,3.85-55.55,5.72-18,1.81-36.06,3.54-54.09,5.4-12.07,1.24-24.12,2.63-36.18,3.95-3.08-3.12-5.34-7-9.16-9.86-1.81,2.41-1.07,4.32.38,6.05,1,1.14,2.19,2.08,1.79,3.83-8.27,2.08-16.82,1.72-25.19,2.95-5.58.82-11.21,1.36-16.82,2a7.7,7.7,0,0,1-1.32-3C691,309.18,689.49,309.89,688,309Z" transform="translate(0)" fill="#ececec"/><path d="M736,307c-7.39-3.23-8.45-10.43-1.43-15.84,1.79,6,8.43,8.88,8.42,15.82Z" transform="translate(0)" fill="#e7e7e7"/><path d="M688,309c3.11-1.62,4.28-5.73,8.44-6.75,2.5,4.31-1.82,6.59-2.44,9.73h-5C688.67,311,688.33,310,688,309Z" transform="translate(0)" fill="#e7e7e7"/><path d="M1288,631c.67-3.33,1.33-6.67,2-10-3.46-3.42-1.35-6.22,1-9,.7-4.18-.35-5.3-4.1-4.41a11.85,11.85,0,0,0-6.4,4.52A7.08,7.08,0,0,1,1274,615c1.06-2.34,1-4.84,1-7.33.07-9.35,2.33-10.73,10.8-6.31,4.37-1.36,7.36-3.44,7.92-9,.69-6.85,2.79-13.56,4.28-20.33-.37-.22-.48-.45-.36-.67s.24-.33.36-.33a78.78,78.78,0,0,0,1.68-13.2c.46-6.35,2.21-12.62,3.41-18.92,1.89-9.92,4.06-19.79,4.91-29.88a8.61,8.61,0,0,1-.84-6.24c1.51-9.36,3.13-18.7,4.78-28,1.58-9,.93-9.82-7.19-13.76-17.81-8.63-35.72-17.06-53.57-25.62q-52.42-25.14-105-50c-2.57-1.21-5.22-2.29-6.23-5.31-5.11-2.12-10.85-2.66-15.23-6.63-1.93-1.74-4.73-1.28-7.2-1.5-2-.17-3.53-1-4.09-3.05a2.53,2.53,0,0,1,1.13-3,4.56,4.56,0,0,1,5.14.35c5,3.26,7.14,3,9.88-1.77a457.67,457.67,0,0,0,21.79-42.45A15.59,15.59,0,0,0,1152,320a10.23,10.23,0,0,1,5-11c2.94-2.9,4.07-6.86,5.62-10.45,5.45-12.68,12.85-24.45,17.38-37.55a2.61,2.61,0,0,1,1.24-1.71c3.1-.79,4,1.83,5.31,3.59,12,16.18,23.88,32.48,34.56,49.62,4.29,6.89,9.47,13.24,13,18.22-5.48-8.52-13.64-17.69-19.47-28.47-1-1.84-3.12-3.72-.64-5.47s4.43.54,5.69,2.4c4.3,6.34,8.89,12.47,13.49,18.59,5.28,7,10,14.53,16,21,1.66,1.79,3,3.37,5.82,3,2.41-.31,3.88,1.36,5.33,3.1,8,9.58,14.8,20.1,22.4,30,2,2.57,3.52,5.67,7.76,6.47,1.7-5.58-.42-10-3.92-13.56-4.29-4.35-7.23-9.52-10.34-14.62-6.75-11.05-13.5-22.11-20.43-33-11.39-18-23.72-35.34-36.68-52.25-5.88-7.65-13-14.34-18-22.65a9,9,0,0,0-2.34-2.58c-1.26-.93-2.64-1.64-4.11-.56s-1.31,2.57-.91,4.09c.52,2,1.9,3.5,2.64,5.37s.65,3.74-1.31,4.75-3.61,0-4.45-1.91c-1.29-2.87-3.57-5.26-4.06-8.51-.34-9.25,4.38-15.72,11.44-20.93v-1c6.25,6.33,10.3,14.26,15.43,21.4,12.91,18,25.43,36.25,38.13,54.38,12.9,18.41,25.88,36.77,38.73,55.22,3.3,4.73,8,7.71,12.56,11.69,1.85-3.57.68-6-1.1-8.28-9.17-11.67-16.88-24.3-24.57-37a64.26,64.26,0,0,1-4.49-8c2.94,1.78,4.6,4.59,6.43,7.23,9.2,13.29,18.31,26.64,27.63,39.83,2.42,3.42,4.71,7,10.16,6.84,2.87-.08,4.68,3.62,6.46,5.85,4,5,8.29,10.28,5.4,17.57a4.25,4.25,0,0,0-.28,2.45c2.1,8.16-1.75,15.39-3.57,22.91-1.41,5.84-3,11.65-2.71,17.69.15,2.63.6,5-3.22,6.34l28.65,39.28c2.76-.84,5-2.52,8.39.44-2.92-8.37,3.4-10.49,6.62-14.38,6.26,1.78,11.28,9.66,10.09,17-.77,4.83,1,7.12,5,8.87,4.4,1.9,8.66,4.13,13,6.18.22.1.61-.17,1.75-.51-5.19-12-14.88-21-21.17-32s-15.56-20.29-21.54-32.12c3.5-.54,5.67.66,7.33,3.63a172,172,0,0,0,8.94,14.74c2.16,3.08,5.36,5.42,7.72,8.39,7.28,9.14,11.85,20.2,18.82,29.29,5.74,7.49,10.17,17.56,21,20.21,2,.49,3.28,2.2,4.72,3.59s2.6,3,4.52,2.89c7.36-.33,11.16,5,14.65,9.84,8.74,12.16,16.86,24.77,25.28,37.16,7.67,11.29,15.24,22.66,23.18,33.75a241.41,241.41,0,0,1,16.89,28.2c-8.79-12.49-22-21.15-29-36.18-1.65,3.22.73,4.27.26,6.26-2.57-.69-3.87-3.59-7.49-4l11.79,17.45c-4.35-2.69-6.45-7.2-9.47-10.94-1.61-2-3.08-4-6-3.8-2.42.13-3.3-1.86-4.6-3.35s-1.93-3.52-4.07-4.23c.5,5.47,59.1,86,64.15,88.31,1.83-.2,1.4-2.62,3-3.07,10,6.73,18.32,15.29,26.61,23.87.21,1.09,1,2.17,0,3.25a2.07,2.07,0,0,1-2.31.44c-5.88-3.52-12.53-3.91-19-4.9-2.79-.42-5-.24-6.86,2.5-2,3.06-4.87,3.26-7.51.56-1.77-1.8-4.17-2.76-5.83-4.62a3.47,3.47,0,0,0-4.62-.94c-.15,2.07,1.48,3.16,2.44,4.59.94,2.11,2.79,3.44,4.26,5.1.46.84.91,1.68,1.36,2.52,1.34,2.42,5,4,2.66,7.73-2.62,1.65-3.9-.28-5.31-2-4.52-5.35-8.26-11.27-12.49-16.83-2.12-2.8-4.58-4.77-8-5.4-9.06-2.09-18.36-2.69-27.45-4.56-5.19-1.07-10.57-1.11-15.64-2.85a7.34,7.34,0,0,0-3.1-1.15c-8.34-.3-16.5-1.84-24.67-3.34a6.19,6.19,0,0,1-2.38-.67c-12.26-1.73-24.44-4-36.67-5.91-8.51-1.32-16.93-3.18-25.56-3.58a14.11,14.11,0,0,1-4.78-.75c-.54-.1-1.07-.25-1.6-.38-3.63-2.94-7.8-2.69-12-2a33.84,33.84,0,0,0-11.88-1.89,27.42,27.42,0,0,1-4.75-.89,8.19,8.19,0,0,1-2.29-1.19c-7.35-1.12-14.72-2.15-22-3.45-8.59-1.53-9.59-2.56-8-11.32C1284.57,639,1283,633.77,1288,631Z" transform="translate(0)" fill="#eee"/><path d="M1507,702c-1.81-1.29-2.77-3.25-4-5a2.27,2.27,0,0,0,.36-1.58,4.32,4.32,0,0,0-.86-1.48c-.47-1.33-2.5-2.06-1.5-3.94.87-.94,1.28-2.43,3.66-2.43,2.62,3.95,7.39,5.84,11.24,8.67,1.91-.69,1.9-2.16,2.28-3.39.48-1.63,1.57-2.81,3.24-2.47,7.32,1.48,14.93,1.47,22,4.2a17.43,17.43,0,0,1,3.27,2.24c1.23-.05.86-1.23,1.32-1.82,1.91,2,3.23,4.53,6,5.82.55-2.08-2.51-2.77-1.3-5.5A142.24,142.24,0,0,0,1567,713c.32,5.78,4.84,9.29,7.61,13.69,4.77,7.58,10,14.84,15,22.27a15.18,15.18,0,0,0,5.59,5.49A10.85,10.85,0,0,1,1601,761c-7.19-5.42-14.7-10.49-20-18-.56-1.07-.33-2.67-2-3-2.87-3-5.93-3.09-9.36-.88s-7.67,3.12-11.12,6.52c6.7,7.82,13.22,15.52,19.84,23.15,12.63,14.57,25.34,29.08,38,43.65,9,10.43,18,20.92,27,31.36,1.1,1.27,2.26,2.46,2.64,4.16-3,.22-3.61-2.89-5.66-4,2.06,1.09,2.63,4.24,5.66,4a24.78,24.78,0,0,1,6,6c-1.33.53-3.08.49-3.45,3.28,2.59,4,6.29,7.93,9.56,12.21-9.18-4.93-14.73-13.49-21.08-21.15-3-3.66-5.48-7.07-11-5.47-1.77.51-3.56-.29-5.11-1.48-5.81-4.47-11.45-9.08-14.87-15.77-2.54-4.94-7.88-8.34-7.08-15.24.25-2.2-3.21-4.81-4.92-7.27-4.65-6.67-9-13.43-16.32-17.89-4.22-2.57-6.69-7.33-9.56-11.41-5-7.09-10-14.13-14.84-21.32-2.11-3.14-4.32-3.94-7.37-1.49a13.22,13.22,0,0,1-6.23-4.76c-.85-1.25-2-2.66-3.45-2.68-4.56-.08-6.57-3.4-8.86-6.42-5.13-6.75-10-13.65-15-20.53-1.24-1.72-3-3.51-.48-5.6-.43-2.84-2.47-4.78-4-7a.67.67,0,0,0,.4-.78l-.22-.42A9.33,9.33,0,0,1,1507,702Z" transform="translate(0)" fill="#e7e7e7"/><path d="M1207,205c-3.71-3.45-6.07-7.92-8.89-12q-26.41-38.19-52.49-76.59-21.81-31.93-43.5-63.94A32.16,32.16,0,0,1,1100,48c9.79,8.88,18.94,18.39,28,28,1,2.46,3.16,4.13,4.68,6.25,1,1.34,2.38,2.7.69,4.45-.23.15-.46.32-.68.48.17-.1.39-.23.71-.44,2.67-.9,3.54,1.27,4.55,2.79,18.24,27.32,37,54.28,55.16,81.64,4.3,6.48,8.74,12.88,11.73,17.06-11.81-17.47-25.17-37.08-38.5-56.72-8.53-12.58-16.91-25.27-25.56-37.77-1.17-1.69-3.23-3.44-.8-5.72,1.5,1.32,3.06,2.57,4.47,4q36.21,36.18,72.4,72.39c7,6.95,7.07,7.73,2.74,16.41-1.26,2.53-2.17,5.37-3.94,7.49-4.19,5-2.67,9.17.78,13.75,8.93,11.83,16.58,24.53,24.55,37,.67,1.05,1.83,2.05,1,3.63-2,.74-2.53-1.07-3.3-2.15-4.53-6.37-8.08-13.81-13.74-18.89a78.22,78.22,0,0,1-13.16-15.48c2-2.09,1.54-3.66-1-5.14Z" transform="translate(0)" fill="#ededed"/><path d="M1197,217l4.36-5.61c-9.53-19.12-23.51-35.84-34.81-55,3.46.14,4,2.12,5,3.49q15.24,21.27,30.39,42.61c1.35,1.89,2.47,4,5,4.54,5.8,5.77,9.6,12.92,13.69,19.94-3.71-2.47-5.87-6.91-11.45-8.21,2.69,6.47,7.33,11.07,10.31,17.25-4.89-2.46-6-11-14.07-6.84Z" transform="translate(0)" fill="#ededed"/><path d="M1133,87c-.47-4.21-5-6.58-5-11,4.58,3.42,8.06,7.94,12,12,3.77,8.21,9.47,15.23,14.4,22.69,15.33,23.18,31,46.11,46.59,69.13q3.91,5.79,7.84,11.57c.91,1.34,2,2.61,1.2,4.46-2.58.07-3.07-2-4-3.43q-34.54-50.48-69-101c-1.13-1.65-2.18-3.37-4-4.43Z" transform="translate(0)" fill="#e5e5e5"/><path d="M1194,216c-5.93-4.56-8.67-11.55-13-17.35-2.36-3.18-5.33-6.22-5.88-10.59C1182,196.9,1190,204.85,1195,215Z" transform="translate(0)" fill="#ededed"/><path d="M663,72c5.52,3.48,4.13,9,3.74,13.94-.28,3.4-1.57,6.72-2.46,10.28-9.92,1.9-19.83,3.43-29.22,9.77,5.6,1.5,9.52-2.94,13.94-1,1,3-1.29,3.83-3.24,4.52-12.78,4.53-25.42,9.42-38.38,13.43-2.48.76-4.9,0-7.35.06-16.59,4.35-32.49,10.83-48.9,15.71-3.57,1.06-6.57,1.05-7.89-3.69,3.35-4.08,8.62-4.77,12.86-7.14,6.52-3.63,13.54-6.43,20-10.23,3.44-2,5.64-5.62,10.35-6.25,4.29-.57,7.87-1.26,10.28,4.31,4.62-8,8.77-15.34,14.31-21.72,7.59-7.32,15.68-14,25.45-18.2C644,72.53,651.57,69.56,660,70Z" transform="translate(0)" fill="#f7f7f7"/><path d="M1444,677c12.94,3,26.15,4.45,39.22,6.77,1.61.28,3.19.81,4.78,1.23,4,14.12,2.5,17-11.25,23.32a41.38,41.38,0,0,1,12-4.18,15.68,15.68,0,0,1,8.75.92c5.5,2.18,6.18,6,1.39,9.54-4.36,3.19-9.62,5.19-11.88,9.79-3,.37-3.72-1.41-5-2.39-8.17,2.49-15.32,7.15-22.79,11.06-21.46,11.26-42.73,22.87-64.06,34.38-6.25,3.37-12.44,6.86-18.41,10.15-.4,3.36,2.33,4.38,3.27,6.41a54.4,54.4,0,0,0,4,6c.33,1,.67,2,1,3-2.62-1.45-4.4-3.84-6.61-5.73A13.6,13.6,0,0,0,1367,784c.21-2.31,2.19-3.66,3.12-5.68-1-6.07-5.32-10.15-9.14-14.48a4.33,4.33,0,0,0-4.11-1.38c-2.72.58-5.3-.85-7.73-.79-13,.3-24.84-9.13-38.34-4.74-1,.33-2.3,0-3.45-.18-.22,0-.41-.42-1-1.07,11.69-4.28,24.36,1.22,35.51-3.86.42-6.77-6.69-14.61-13.88-15.82-2-7.62,3.12-17.63,10.21-20a2.43,2.43,0,0,1,1.9.34c1.83,1.59.58,3.32.27,5.05-.57,3.23,1,4.73,4.12,4.59a12.56,12.56,0,0,0,5.7-1.63c5-2.88,10-5.84,13.7-10.49a6.17,6.17,0,0,1,4.76-2.22,13.14,13.14,0,0,0,7-2.3c9.64-7.61,21.61-10.62,32.16-16.43,1.93-1.06,4.09-2.58,6.4-.52,1.46,2.92-1,3.73-2.7,4.91-5.19,3.61-11.1,5.87-16.68,8.75-15.58,8.06-31.19,16.08-45.9,25.68-1.55,1-3.33,1.13-4.77,2.5,7.67-4.12,14.62-9.14,22.21-13,2.81-1.44,5.18-4.24,8.87-3.54,1.7,5.15-2.63,6.7-5.61,8.5-8.46,5.11-11.24,17.66-5.5,25.73,2.1,3,4.49,3.8,7.67,2.07a46.15,46.15,0,0,1,8.17-3.69c2.08-.64,3.12-2.26,3.78-4.3,1.19-3.68,3.53-5.46,7.61-4.33,6.1,1.68,10.41-2.56,15.15-5,3.23-1.68,6.36-3.44,9.78-4.81,6.9-2.76,11.68-8.06,15.33-14.39.76-1.32,1.25-2.94,2.82-3.28,4.51-1,6.16-5.44,9.71-7.55a2.33,2.33,0,0,0,1.12-2.61c-1.62-5.32-1.8-11.13-4.91-15.9-3.77-.91-7.62,3.56-10.89-.68-.58-2.51,1.52-2.91,3-3.83C1436.22,681.18,1440.29,679.4,1444,677Z" transform="translate(0)" fill="#e9e9e9"/><path d="M1482,722l3,.84c.4-4.26,4.2-5.22,6.9-7.05s6.18-2.44,8-6.62c-10.76-6.62-19.81,1.27-30.43,3.57a60.88,60.88,0,0,1,12.15-10c6.73-4.37,7.46-5.89,4.82-13.43-.79-2.25-.41-3.46,1.62-4.36,3.67-.47,5.63,1.86,7.63,4.42,5.58,7.1,10.14,15,16.37,21.58,6.16,10.24,13.79,19.41,20.29,28.36,2.26,1.75,3.87-.28,5.92.82,2.38,3.37,5.89,6.49,7.79,10.81-7.69,3.92-15.4,7.79-23,11.78-2.74,1.43-4.56.71-7.08-1.11-12.46-9-20.1-22.16-30-33.34A16.43,16.43,0,0,1,1482,722Z" transform="translate(0)" fill="#e3e3e3"/><path d="M1384,790a8.82,8.82,0,0,1-4-6A11.75,11.75,0,0,1,1384,790Z" transform="translate(0)" fill="#e9e9e9"/><path d="M1188,246l5.87,9.37c1.1-2.35-.11-3.42-.7-4.6a37.49,37.49,0,0,1-2.64-5.36c-.9-2.92.61-5.2,2.77-7s4.09-.2,5.81,1a15.19,15.19,0,0,1,3.21,3.09c13.16,17.57,27.65,34.16,39.78,52.47,8.33,12.59,16.62,25.24,24.58,38.11,6.94,11.24,12.76,23.37,22,33.13a19.5,19.5,0,0,1,5.27,13.63c0,2.63-.5,5-4.09,6.46-13.22-12.11-21.14-28.87-33.42-42-2-.28-1,2.54-3.68,2.28-13.67-14.59-24.69-32.2-37.58-48.36,5.56,14.25,15.79,25.57,23.91,38.23-5.33-3-7.93-8.38-11.31-13-15.08-20.55-30-41.2-45-61.8A16.34,16.34,0,0,0,1181,260a6.78,6.78,0,0,1-3-2.6c-6.46-9.76-13.37-19.2-20.45-28.52-.41-.54-.28-1.29-.6-1.88l-28.52-40.14,1.17-.88c18.4,22.72,34.39,47.31,52.89,71.27,1.24-4-.85-5.51-2.08-7.22q-19.73-27.59-39.51-55.12c-1-1.36-2.74-2.61-1.1-5.92L1152,205a8.69,8.69,0,0,1,6,4c7.66,10.65,15.31,21.32,23.06,31.9a25.67,25.67,0,0,1,3,5.86c0-1.47.09-2.42,1.24-2.94C1187,243.36,1187.19,245.09,1188,246Z" transform="translate(0)" fill="#f7f7f7"/><path d="M1188,246l-2.63-1.35,2.93,5.8c-3,.78-4.34-1.16-5.77-3.15Q1167.31,226.12,1152,205a7,7,0,0,1,4.43-2.06l13.72,18.46c1.84-1.42.67-2.35.18-3.23-1-1.74-2-3.42-3-5.12-2-3.24-1.3-6.33,1.38-8.51,2.88-2.35,6.55-1.26,8.58,1,5.11,5.64,11.61,9.92,15.81,16.4A7.34,7.34,0,0,0,1198,225c-2.64,4.52-5.13,9.13-8,13.51C1188.46,240.88,1188.82,243.55,1188,246Z" transform="translate(0)" fill="#ededed"/><path d="M1157,227c8.55,10.6,16,22,24,33l-1,1-24-33Z" transform="translate(0)" fill="#e7e7e7"/><path d="M1156,228c-5.51,3.76-9.76,9.22-16,12,3.14-4.77,8.24-7.59,11.92-11.84C1153.05,226.85,1154.6,227.14,1156,228Z" transform="translate(0)" fill="#e7e7e7"/><path d="M1029,909c-5.84-4.52-10-10.66-14.93-16-2.26-2.44-4.34-5-7.06-7,0-.33,0-.67,0-1a40.35,40.35,0,0,1-3.9-17.27c0-9.1-2.2-17.86-3-26.82-2.05-22.54-4.37-45.06-6.58-67.59-2.56-26.17-4.93-52.35-7.63-78.51q-3.93-38-7.46-76c-1.82-19.39-4.09-38.74-6.12-58.11-2.32-22.18-4.39-44.38-6.73-66.56-2.21-20.86-3.71-41.78-6.67-62.56a14.83,14.83,0,0,1,11.52-16.64c8.54-2,8.86-2.41,9.38-11.2.1-1.63-.32-3.37.89-4.8,6.7-.33,11.72,2.35,12.52,6.69,1.52,8.3-1.78,15.26-8.27,17.49A3.13,3.13,0,0,1,981,422c-3-.25-9.46,1.59-12.74,3.55,4.46,16.62,5,33.75,7.62,50.58,2.19,14.3,4.16,28.66,5.58,43.06,3.31,33.46,9.09,66.59,12.69,100,2.1,19.52,4.9,39,7.26,58.45,2.62,21.63,5,43.28,7.66,64.91,1.95,16,4.62,32,6,48,2,22.87,5.6,45.55,8,68.38,1.46,14.23,3.56,28.39,5.33,42.58C1028.7,904,1028.81,906.52,1029,909Z" transform="translate(0)" fill="#ececec"/><path d="M981,399c3,4.91.77,10.09.6,15.12-.1,2.74-2.93,3.18-5.06,2.79-7.25-1.32-10.74,3.92-14.71,8.19-1.44,1.55-.82,3.82-.53,5.8,3.53,24.2,5.21,48.6,7.76,72.91,2.59,24.64,5.26,49.27,7.72,73.92,2.53,25.31,4.77,50.66,7.3,76,2.09,20.84,4.51,41.66,6.61,62.5,1.89,18.7,3.53,37.41,5.32,56.11q2.75,28.56,5.57,57.09,2.7,27.79,5.41,55.6c-4.35-3.92-5-10-8.35-14.5-1-1.38.28-3.18,1.09-4.65a10.59,10.59,0,0,0,.52-9c-1.89.18-.69,2.31-2.47,2.58-8.81-77.29-15.69-154.8-24.62-232.07S960,472.62,948.49,395.27c-9.19.89-15.66,6.45-24.26,10.57,8.12-10,20.1-14.82,23.75-26.83-.08,4.65.8,9.17,1.69,14.31,6.54-.26,13-4.54,19.33-.32A16.86,16.86,0,0,1,981,399Z" transform="translate(0)" fill="#f8f8f8"/><path d="M947.41,644.53c-.79,1.39-1.49,2.27-2.94,2.39-2.09-1.14-2.17-3.45-2.63-5.42s.6-3.07,2.94-2.64C946.2,640.58,945.48,643.26,947.41,644.53Z" transform="translate(0)" fill="#f8f8f8"/><path d="M937.34,644.55c-1.77.91-2.62.49-3.23-1C935.55,642.14,936.49,642.38,937.34,644.55Z" transform="translate(0)" fill="#f8f8f8"/><path d="M949,376c1-1.28,1.76-2.83,4.21-3.25-.32,2.13-2,2.52-3.18,3.26Z" transform="translate(0)" fill="#f8f8f8"/><path d="M660,108c.2-2.75,2.83-2.4,4.38-3.4S668.1,103,669,101c1.25.09,2.62-.29,4,1.33C669.05,105.43,664.48,106.62,660,108Z" transform="translate(0)" fill="#f7f7f7"/><path d="M981,399c-4.19-1.62-8.51-3-12-6a31.68,31.68,0,0,1,14.34-.45c-.28,2.34-3.79,1.08-3.49,3.78,5.27,3.88,11.92.7,17.52,3.39l3.6-3.4c6.68,1,12.52,4.29,18,7.83,7.52,4.84,14.77,10,20.79,16.94,6.75,7.74,15.31,13.68,22.35,21.28,6.53,7,11.52,15.51,19.57,21.18a4.36,4.36,0,0,1,1.3,5.85c-1.59,3-.06,5,1.88,7q28.49,30.4,56.86,60.91c8.47,9.15,16.65,18.56,24.92,27.89,3.67,4.13,2.73,8.26-3.27,12.31-3.63,2.45-6.87,5.87-11.81,6-1.5,0-2.68,1.24-3.6,2.49a205.9,205.9,0,0,1-18.37-18.29c-8.91-9.89-18.75-18.84-28.12-28.27-8.08-8.12-15.92-16.47-24.36-24.24-.12-.11-.17-.31-.3-.39-6.48-3.94-10.18-10.59-15.37-15.78-2.34-2.34-4.86-3.72-7.7-.67-2.13,2.28-5.69.28-7.78,2.64-4.85-.54-3.53-4.78-4.58-7.6,5.51-6.58,5.93-14.88,7.32-22.76.69-3.94-1.91-6.73-5.78-8.73-1.55,5.06,1,10.76-3.37,14.72-2.49.79-3.87-.64-4.6-2.65-2.15-5.93-6-11.11-7.62-17.28a8.51,8.51,0,0,0-5-5.8c-5.19-2.35-8.9-8.82-8-14.55.42-2.83-.5-4.37-2.68-5.77-3.23-2.06-6.6-3.87-9.82-5.93-1.76-1.12-3.33-1.54-4.79.36.91,12,4.12,23.58,6.62,35.27,9.36,43.64,18.91,87.24,28.31,130.88q12.3,57.14,24.4,114.32c10.29,48.89,20.37,97.82,30.64,146.72,5.64,26.89,11.54,53.72,17.2,80.61,5.69,27,11.22,54.12,16.83,81.19-14.09-14.91-27.24-30.65-40.84-46-3.93-4.43-7.18-9.55-12.16-13-1.34-3.73-3.53-7.81-3.71-11.14-.29-5.58-2.64-10.83-2.65-15.86,0-11.47-2.55-22.45-4.19-33.57-3.13-21.23-6.22-42.52-11-63.42-1.67-7.34-3.46-14.81-4.43-22.17-1.69-12.81-5.39-25.27-5.92-38.28-.24-6.07-2.24-12-3.15-18.12-1.92-12.87-3.18-25.85-5.08-38.7-3.56-24.15-8.63-48.07-12.31-72.21-1.8-11.81-3.9-23.59-5.26-35.51-2.08-18.11-5.62-36-8.63-54.06-5-30-10.23-60.06-15.17-90.12-1.94-11.82-3.42-23.72-5.91-35.45A7,7,0,0,1,981,422c7.06-2.34,10-5.86,10-12C991,403,990.06,402,981,399Z" transform="translate(0)" fill="#ececec"/><path d="M1043,493l3,8c2.17,8,4.62,16,6.45,24.08,2.66,11.82,7.25,23,10.59,34.62.77,2.68,1.24,5.13-2.23,8.12-4.54-15.58-11.89-29.16-19.89-42.57,2.33,20.07,9.58,39,13.35,59.59-2.93-1.79-2.88-4-3.49-5.75-.85-2.52-1.18-5.29-3-7.34-2.32-2.62-3.77-4.84-2.11-8.84,1-2.32-.21-6-1.36-8.62-1.82-4.2-2.91-8.76-6.21-12.36a14.19,14.19,0,0,1-3.94-10.36c.08-4.23-3.44-7.75-5.19-11.66s-5.43-7.32-8.55-11.3c-2.38,4.11,1.52,7.88-.42,11.4-3.79-10.86-5.24-22.28-7.89-33.42-4.55-19.07-8.56-38.27-12.8-57.42-.36-1.62-.53-3.33-2.31-4.16.11-2.22.93-4.67,3.43-3.58a74.19,74.19,0,0,1,18.27,11.12c-3.17,9.22-1.59,12.84,7,16.57,2.19.95,2.74,2.78,3.33,4.66,2.47,7.79,6.41,14.91,9.93,22.23C1043,479.71,1045,488.38,1043,493Z" transform="translate(0)" fill="#e5e5e5"/><path d="M1131,610c1-4.47,8.41-8.68,14-8C1140.51,605,1136.17,608.21,1131,610Z" transform="translate(0)" fill="#eee"/><path d="M1145,615c-.33.68-.67,1.35-1,2a7.87,7.87,0,0,1-4,2c-.33-.22-.44-.44-.33-.67s.22-.33.33-.33A11.92,11.92,0,0,1,1145,615Z" transform="translate(0)" fill="#e7e7e7"/><path d="M1173,610c-.11-1.24.34-2.06,1.65-1.49s.85,1.57.35,2.5Z" transform="translate(0)" fill="#e7e7e7"/><path d="M1140,618v1l-2.78,1.83C1137.67,618.75,1139.08,618.64,1140,618Z" transform="translate(0)" fill="#e7e7e7"/><path d="M1070.5,232.6l-3.28-3.08c-2.87-.19-4.09,2.2-6.32,2.88,6.26,8.9,5.59,14.43-2.76,21.11-3.33,2.66-4.36,6.62-6.72,9.8-4.38,5.89-11.51,8.24-16.15,13.77a125.59,125.59,0,0,1-15.2,15.73c-6.7,5.59-13.14,11.73-21.5,15a8,8,0,0,0-2.92,1.77c-6,6.41-8.49,6.61-15.06,1.12-7.55-6.3-13.77-13.5-16.31-23.29-.71-2.74-2.94-4.37-4.64-6.4-6-7.17-9.66-15.63-12.85-24.31-1-2.74-2.25-5.16-4.79-6.77a3.76,3.76,0,0,1-1.51-1.28c-3.85-8.58-12.47-14.05-14.85-23.73-1.62-6.57-8.72-7.69-13.55-11-1.8-1.22-4-1.69-4-4.46s1.81-3.79,4-4.4c3.25-.91,2.94-4,3.92-6.71,5.11,1.66,7.07,6.29,10.12,9.54,13.29,14.21,25.2,29.62,38.14,44.16,6.56,7.37,13.27,14.85,18.48,23.42a22,22,0,0,0,4,4.45c3.55,3.29,7.43,4.08,10.94.19,5.25-5.82,13.83-7.51,17.93-14.67,12.11-3.85,15.42-16.87,24.78-23.78,5.57-4.11,10.93-8.63,16.68-12.5,2.84-1.91,4.79-4.59,7.46-6.53,1.56-1.14,3-3,5.28-1.88s3.23,3.29,3.17,5.8C1072.89,228.68,1073.51,231,1070.5,232.6Z" transform="translate(0)" fill="#e7e7e7"/><path d="M969.87,311.42c-3.85-.86-4.17-3.3-4.38-6.49C968.81,306,971.53,306.87,969.87,311.42Z" transform="translate(0)" fill="#e5e5e5"/><path d="M1340,717c-5,1.41-7.16,6-10.18,9.48-1.66,1.94.64,4,.71,5.92-.13,1.81-1.54,2.55-2.53,3.6-4.68,2.45-9.39,4.85-14,7.36-4.26,2.3-8.28,3.4-13.11.85A10.57,10.57,0,0,0,1288,746l-7,3c-1.69-2.89-4.77-1-7-2-.62-2.63,1-3,3-3,4.14-1.42,6.42-5.13,9.49-7.85,2.24-2-.14-4.78.42-6.81.92-1.66,2.17-2.24,3.54-1.85,5.64,1.61,9.42-1.72,13.49-4.67,3.5-2.54,3.65-5.36,1.22-8.48-2.76-3.53-5.61-7-8.65-10.27-10.15-10.94-20.19-22-30.73-32.56-3.47-3.49-1.2-6.31-.78-9.51l.62-.49c1.38-.54,2.55.07,3.72.66a36.78,36.78,0,0,1,7.3,8.76,18.86,18.86,0,0,0,7.79,7.35,6.73,6.73,0,0,1,.93,1.06c.83,1.1,1.8,2.09,2.58,3.24a31.37,31.37,0,0,0,6.45,8.14c4.32,7.49,9.21,14.53,15.69,20.36.88.79,1,2.06,1.35,3.18.38,2,1.51,3.62,2.2,5.46.4,3.71-2.11,5.74-4.61,7.71a55.59,55.59,0,0,1-13.12,7.75c4.68-.48,7.77-4.63,12.78-5.18,4.68-.52,9.17-3.16,13.85-1.49,2.7-2,1.39-5.15,3.1-7.06.5-.51,1-1,1.57-1.45a15.62,15.62,0,0,1,4.47-3.34c2.51-1.13,4.5-3.13,7-4.26,1.66-.08,3.28,0,4.54,1.3C1343.71,716.32,1342.49,717.29,1340,717Z" transform="translate(0)" fill="#e7e7e7"/><path d="M1331,853c5.31,5.69,8.74,12.54,11.52,19.66,3.71,9.5,9.58,17.86,13.84,27.07,7.46,16.12,15,32.2,22.84,48.14,9.87,20.12,18.71,40.73,29.1,60.61a103.59,103.59,0,0,1,6.23,14.84c-2.75-2.13-3.57-5.34-5-8.19q-25.51-52-51-104-13.15-26.91-26.15-53.89A33.73,33.73,0,0,1,1331,853Z" transform="translate(0)" fill="#e9e9e9"/><path d="M1303,795c1.37.93,2.66,1.79,3.32,3.53,6.33,16.64,15,32.14,23.29,47.86,1.12,2.13,2.07,4.16,1.39,6.61h0c-4.24-5.82-6.86-12.52-9.84-19q-8.29-17.91-17.56-35.3c-.67-1.26-1.18-2.36-.6-3.74Z" transform="translate(0)" fill="#e9e9e9"/><path d="M1279,766c-3.42-2.87-5.69-6.26-5-11Q1276.51,760.5,1279,766Z" transform="translate(0)" fill="#e7e7e7"/><path d="M1303,795a4.87,4.87,0,0,1-2.34-3.71c2,.77,1.87,2.41,2.34,3.71Z" transform="translate(0)" fill="#e9e9e9"/><path d="M1579,740c.32-.66.82-1.16,1.53-.64,1.36,1,1,2.31.48,3.61A4.75,4.75,0,0,1,1579,740Z" transform="translate(0)" fill="#ececec"/><path d="M1239,717q-17.1-36.22-34.22-72.44c-.56-1.2-1.19-2.37-1.79-3.55-1.48-1.7-4.36-1.88-5-4.51,5.14-5,19.9,2.41,24.32,12.08.2,1.8-2.1,2.63-1.73,4.49a2.07,2.07,0,0,0,.2.46c1.22,1.61,2.84-.48,4.5.69,1.25,4,1.46,8.9,5.7,11.8,4.12,3.76,6.74,8.16,6,14,.33.67.67,1.33,1,2,10.91,13.65,17.2,29.89,25.1,45.21,2.2,4.28,4.65,8.43,6.65,12.81.89,1.94,2.15,3.91.25,6l-3.38,8.39c-11.34-17.36-20.41-34.94-30.95-51.67C1235.16,708,1240.23,711.69,1239,717Z" transform="translate(0)" fill="#e7e7e7"/><path d="M1270,746q-14.87-29.25-29.72-58.5c-.89-1.77-1.53-3.66-2.28-5.5,9.47,9.5,19.93,18,28.37,28.53,4.27,5.32,9.66,9.57,13.92,15,2.46,3.11,2.69,5.67,1.13,9.07-1.46,3.16-3.75,5.93-4.42,9.45l-3,3Z" transform="translate(0)" fill="#eee"/><path d="M1202,643c2.68,10.46,9.19,19.2,13.13,29.1,2.68,6.74,5.9,13.27,8.88,19.89-3.89-2-4.65-6.13-6-9.67-2.37-6.48-7.45-9.34-14-7.34-4.81-11.74-11.12-22.84-15-35,.32,0,.88-.18.92-.1C1192.65,646,1197.2,645,1202,643Z" transform="translate(0)" fill="#e7e7e7"/><path d="M1289,704.87c-4.19,1.4-7,6-12.29,4-4.35-1.62-11.74-8.54-14.07-14.23,7.25,1.3,3.21-8.95,9.26-9,2.42,1,.93,3.4,2.54,4.47C1283.15,692.28,1288.56,697.52,1289,704.87Z" transform="translate(0)" fill="#eee"/><path d="M1237,680c-2.25-4.56-5.92-8.51-6-14-.49-5.86.44-11.92-2.64-17.59,3.81-2.32,6.28-1.69,8.11,2.24,1.66,3.58,1.9,7.44,2.24,11.18.42,4.66,2,6.86,6.88,5.47.7-.2,1.57.23,2.49.39.89,2.91.31,5.58-.19,8.84C1243.65,676,1239.41,675.59,1237,680Z" transform="translate(0)" fill="#eee"/><path d="M1263,660v-3c3.6.49,4,2.27,2,5Z" transform="translate(0)" fill="#e7e7e7"/><path d="M1280.94,713.27c-1-.16-1.39-.79-1.09-1C1280.66,711.59,1280.88,712.25,1280.94,713.27Z" transform="translate(0)" fill="#eee"/><path d="M1245,728a13.61,13.61,0,0,1-3-6C1245.17,722.92,1245,725.53,1245,728Z" transform="translate(0)" fill="#e7e7e7"/><path d="M1256,753l-2-4C1255.8,749.77,1257,750.84,1256,753Z" transform="translate(0)" fill="#e7e7e7"/><path d="M1346,794l-1-1a31.19,31.19,0,0,0-7.77-11.72c3.5-1.81,5.41-.9,6.22,2,.65,2.33.25,5,2,6.39,2.25,1.32,3.69-.47,5.61-.06,1.55.4,1.75,1.91,2,3.41C1350.39,791.46,1348.32,793.66,1346,794Z" transform="translate(0)" fill="#e9e9e9"/><path d="M1361,802c-1.88-1.45-4-2.64-5-5C1359,797.33,1360.21,799.46,1361,802Z" transform="translate(0)" fill="#e9e9e9"/><path d="M1420,924c-10-17.34-20-34.67-30-52.06-1.47-2.56-3.46-4.89-4-7.93-.26-2.07-3.1-3.73-1.11-6.19,2.35-.67,3.42,1,4.59,2.31a33.19,33.19,0,0,1,5.68,8c3.5,7.71,9,14,13.84,20.82v1c3.75,9.94,10.2,18.27,16,27a4.7,4.7,0,0,0,2,3c6.52,13.25,12.17,26.9,18.79,40.1.16.33-.4.86-.85,1.23-2.43,1-3.42-1.25-5-2.32q-1.48-2.5-3-5c-.08-3.44-2.33-6.11-3.9-8.72C1428.82,938.14,1424.94,930.73,1420,924Z" transform="translate(0)" fill="#e9e9e9"/><path d="M1440,959l4.44,1c-.76-2.07-1-4.2-2.1-5.51-7.25-8.35-7.07-20.26-13.94-28.8-1.11-1.39-1-3.78-1.39-5.71,3.67,7.56,9,14.24,11.65,22.35A37.68,37.68,0,0,0,1448,958c2.84,2.8,5.3,6,5,10.44-.12,2.1.92,3.79,2.1,5.46,1.47,2.1,2.43,4.36,1.19,6.86-1.47,1.34-2.93.42-4.36.26C1447.21,974.09,1443.85,966.41,1440,959Z" transform="translate(0)" fill="#e9e9e9"/><path d="M1409,889c-5.74-5.38-9.91-11.91-13.84-18.64-2.45-4.18-4.82-8.48-8.87-11.66-1.46,2.15-.12,3.73-.29,5.31-7.23-11.69-14.48-23.36-20-36-.14-1.45-1.11-2.81-.49-4.34,1-.69,1.57,0,2,.69,5.75,8.13,12.52,15.74,17,24.53,5.48,10.82,13.23,20.13,18.67,30.89C1404.81,883.05,1408.08,885.28,1409,889Z" transform="translate(0)" fill="#e9e9e9"/><path d="M1357,814q-3.51-6.48-7-13c.59-1.25,1.48-1.4,2.29-.36,3.23,4.14,7.14,7.82,8.94,12.91C1359.83,815.39,1358.38,814,1357,814Z" transform="translate(0)" fill="#e9e9e9"/><path d="M1425,917a57.94,57.94,0,0,1-16-27c3.79,4.36,5.32,10,8.84,14.68C1420.65,908.38,1424.09,912.05,1425,917Z" transform="translate(0)" fill="#e9e9e9"/><path d="M357,218c-8.71,6.63-19.18,9.45-29.11,13.43-2.08.83-3.54-.09-3.89-2.42,9.07-3.19,18.14-6.41,27.23-9.55C353.1,218.8,355.07,218.47,357,218Z" transform="translate(0)" fill="#ededed"/><path d="M421,195c.15.08.42.17.42.24-.57,4.72-5.15,3.76-7.85,5.44-1.95,1.22-3.83,1-4.56-1.68C413,197.58,416.69,195.4,421,195Z" transform="translate(0)" fill="#ededed"/><path d="M1420,924c6.21,6.58,10.2,14.66,14.63,22.38,1.2,2.09,4.12,4.34,2.37,7.62Q1428.51,939,1420,924Z" transform="translate(0)" fill="#e9e9e9"/><path d="M600,123c14.26-5,28.51-10,42.79-14.93,2.21-.77,4.41-1.47,6.18-3.08,2.88-1.07,4,1.45,6.19,2.88-3.29,2.8-7.31,3.36-10.88,4.71-10.83,4.11-21.85,7.69-32.69,11.78C607.33,126,603.61,125.91,600,123Z" transform="translate(0)" fill="#e7e7e7"/><path d="M473.4,176.57c-3.87,4.4-11.55,7.1-15.22,5.77A55.48,55.48,0,0,1,473.4,176.57Z" transform="translate(0)" fill="#ededed"/><path d="M1140,380c13.12,4.87,25.37,11.66,38,17.6,40.91,19.28,81.65,38.92,122.46,58.42l12.15,5.8c1.91.92,3.53,2.16,3.12,4.56-2.43,14.23-4,28.62-7.73,42.62l-38,25.69c-16.41,11.06-33,21.85-49.15,33.28-6.48,4.59-14,7.85-19.35,14-2.06,2.34-4.35,2.1-6.44-.17-.67-.73-1.31-1.51-2-2.22-5-5-7.13-5.46-13.61-2.78-1.22.5-2.42,1.14-3.82.63-.26-.19-.71-.36-.76-.6-3-14.43-13.31-24.16-22.25-34.84-10.13-12.11-20.84-23.71-31.66-35.16-7.87-8.32-15.86-16.54-23.88-24.72-4-4-8-8.06-10.16-13.42-3.86-9.65-10.72-17.15-17.53-24.66-4.15-4.57-4-6.32,1.19-9.68,15.64-10.18,29.78-22.29,44-34.28C1122.81,393.1,1131.5,386.67,1140,380Z" transform="translate(0)" fill="#e7e7e7"/><path d="M1265,662a7.55,7.55,0,0,0-2-5c-2.48-1.68-2.84-4.57-4-7-4.07-3.28-5.85-8.48-10-11,.34-2.52,1.86-3.09,3-4,2.5-1.44,4-4.34,7-5,3.79-1.75,6.69-1.26,8.61,2.92,1.09,2.35,2.32,4.68,5.37,5.47,2.5.65,1.72,3.73,3.24,5.79,4.48.05,7.68,2,7.58,7.36,0,1,1,1.75,1.76,2.34,7.18,5.49,12.51,12.85,19.1,18.93,2.58,2.38,5.32,3.88,8.91,3.71,4.93-.24,6.88-3.09,5.12-7.69-.93-2.42-2.74-4.07-4.72-5.68-3.67-3-3.33-4.95,1-7.15h2a3.87,3.87,0,0,0,4,1l12,2a43.13,43.13,0,0,0,13,2h1c1.16,1,2.58,1,4,1l63,10c2.1,2.66.47,4.15-1.69,5.54-7.08,4.58-14.44,8.7-21.77,12.85-4.88,2.76-9.82,5.44-14.57,8.44-12.89,4.08-24.66,10.75-37,16.17l-6,4c-1.39.92-2.61,2.08-4,3l-1,1a20.47,20.47,0,0,1-11.21,5.26c-2,.3-4.12.3-6,1.37-1.31.72-2.86.93-4-1.15,1.81-2.5,6.53-3.88,4.25-8.48l-2-5c-2.07-7.38-7.65-12.39-12.3-18-1.44-1.74-3.41-3.07-4.7-5a28,28,0,0,1-6-8,8.45,8.45,0,0,1-3-3c-4.49-6.12-10-11.33-15-17Z" transform="translate(0)" fill="#e6e6e6"/><path d="M1315,656c-.61,1.14-1.66,2.15-1,4,5,3,8.54,7.24,8,13.91-.24,3-1.46,4.53-4.45,5-6.33.94-11.39-.46-16-5.51-5.33-5.84-10.3-12.17-17-16.72a5.76,5.76,0,0,1-2.58-4.61c-.28-4.51-3.09-5.37-6.91-5-1.83.2-3.87,1.27-5.33-.51-.09-2.42,2.9-2.06,2.79-5-3.42-2.31-5.36-6.74-8.41-10.32-1.29-1.53-3.34-1.21-5.16-1.27,5.25-3,7-2.82,9.65,1.94,2.29,4,5,4.42,9.15,2.79,3.35-1.32,5.63-5.81,10.2-3.73-.86,6.19-1.72,12.38-2.65,19.1C1295.2,653.23,1305.38,653.34,1315,656Z" transform="translate(0)" fill="#e7e7e7"/><path d="M1274.27,615c-6,6.49-18.21,7.29-24.19,2-3.14-2.75-3.32-6.19-.75-9.64,3.29-4.38,8.37-5.57,12.85-8.26,3.26,4.31,8,6.83,8,12.66C1270.22,614,1272,614.85,1274.27,615Z" transform="translate(0)" fill="#eee"/><path d="M1240.54,605.29c-1.85,5.88-6.06,9.05-10.53,10.94-3.44,1.46-5.91-2.32-7.77-5-1.64-2.36-4.67-3.89-4.9-8.79C1225.13,604.68,1232.46,607.66,1240.54,605.29Z" transform="translate(0)" fill="#e7e7e7"/><path d="M1157,309a28.14,28.14,0,0,1-5,11c-3.28,1-5,4.8-8.46,5.13-1.28-1.09-1.46-2.22-.86-3,3.4-4.44,5.75-9.68,10.13-13.39C1154.36,307.42,1155.71,307.24,1157,309Z" transform="translate(0)" fill="#e7e7e7"/><path d="M1263.84,591.81c.13-5.75,5.61-9.49,22.9-15.66C1284.72,580.33,1268,591.8,1263.84,591.81Z" transform="translate(0)" fill="#e7e7e7"/><path d="M1291,612c-.33,3-.67,6-1,9-1.58.6-3.29,1.19-4.3-.71-1.23-2.29-.2-4.42,1-6.41C1287.72,612.3,1289.33,612.06,1291,612Z" transform="translate(0)" fill="#e7e7e7"/><path d="M1252,635c-.69,1.25-1.8,2.36-1.32,4.67,4,2,5.54,6.63,8.32,10.33-4.83-2-6.45-7.14-10-10.43C1246.7,637.47,1249.59,635.68,1252,635Z" transform="translate(0)" fill="#e7e7e7"/><path d="M1029.21,396.27c-2.71.2-3.72-.83-3.44-3.53C1028.49,392.53,1029.51,393.55,1029.21,396.27Z" transform="translate(0)" fill="#e5e5e5"/><path d="M1288.79,551.63c-2.23-2-1.68-3.36-.62-5.08C1290.44,548.13,1290,549.54,1288.79,551.63Z" transform="translate(0)" fill="#eee"/><path d="M1037.89,405c1.93.32,3,1,3.29,3.11C1039.12,408,1038.19,407.09,1037.89,405Z" transform="translate(0)" fill="#e5e5e5"/><path d="M1298,571v1c-1.34,0-2.74,1.36-4.16-.33C1295,569.66,1296.52,570.49,1298,571Z" transform="translate(0)" fill="#e7e7e7"/><path d="M1125.37,338.11c.1,1.89-.62,2.45-2.31,2.24C1122.72,338.71,1123.53,338.19,1125.37,338.11Z" transform="translate(0)" fill="#e7e7e7"/><path d="M1155.22,588.07c-.23,1.2-.82,1.68-1.42,1.41-1-.45-.31-1,.21-1.28C1154.25,588.05,1154.61,588.12,1155.22,588.07Z" transform="translate(0)" fill="#e7e7e7"/><path d="M699.91,301.18c-1.25-2.62-1.08-4.48,0-6,5.87-8.88,10-18.78,17.24-26.91,5.36-6,8.21-14,13.29-20.39,2.7-3.39,5.35-6.72,10.42-9.31-4.15,9.45-10.75,16.33-13.41,25.35l9.67-14.08,1.38.88c-4.58,8.21-9.84,16-15.72,24.49-1.12-3.67,2.53-5.05,1.21-8.64C715.72,278.2,709.42,290.51,699.91,301.18Z" transform="translate(0)" fill="#e7e7e7"/><path d="M822,244.09c-7.08-7-15.29-12.47-21.56-20.05a6,6,0,0,1,1.47-8.74c3.5-2.09,5.48-.27,7,2.87,3.11,6.21,8.37,10.67,13.09,15.53C826.2,238,826.51,239.87,822,244.09Z" transform="translate(0)" fill="#e7e7e7"/><path d="M725.45,295c-5.06,4.88-11.07,7.68-17.38,11.57C709,295,717.08,289.84,725.45,295Z" transform="translate(0)" fill="#e7e7e7"/><path d="M741.77,282.18c4.55,1.89,6.08,5.11,7.73,8.65C745.5,290.07,742.92,287.35,741.77,282.18Z" transform="translate(0)" fill="#e7e7e7"/><path d="M752.42,216.13c1.8,4-2,5.65-3.58,9.8C748,220.94,750.78,218.78,752.42,216.13Z" transform="translate(0)" fill="#e7e7e7"/><path d="M755.61,297.85c-1.91-.41-2.61-1.18-2.81-3.05C754.65,294.92,755.33,295.79,755.61,297.85Z" transform="translate(0)" fill="#e7e7e7"/><path d="M1442.68,601.87c1,.45,1.7,1.15,2.69.66,1.45-1.89-.92-4.21.82-6.45a8.25,8.25,0,0,1,9.08,2.77c9,10.86,18.39,21.41,24.82,34.18,5.93,11.78,13.78,22.33,22.07,32.54a19.26,19.26,0,0,1,4.22,8.74c-1.39,1.88-3-.69-4.46.81,0,2.87,3.21,5.23,2.35,8.76-2.24.34-2.63-1.65-3.52-2.8-4.58-5.93-8.69-12.21-13.78-17.75-1.6-1.74-3.07-2.16-5.31-1.13-37.31-46.33-70-95.84-104.59-144,26.55,35.15,52.33,70.86,79.4,105.65C1453.08,615.88,1447.05,609.55,1442.68,601.87Z" transform="translate(0)" fill="#f7f7f7"/><path d="M1375,696c12.45-6.57,24.61-13.66,36.67-20.91A5,5,0,0,0,1414,672l27,5c.41,1.14,0,1.78-1.08,2.33-7.45,4-13.65,10-21.49,13.41-1.47.64-2.84,2-4.43.26-6,2.79-12,5.62-18,8.36-6.92,3.14-13.35,7.92-20.14,10.32-8.94,3.17-14.87,9.93-22.75,14.05a27.46,27.46,0,0,1-7.88,2.91c-2.86.51-5.58.7-7.49-2.31-1.78-2.8-.79-5,.92-7.26.5-.66.93-1.38,1.39-2.07l3-3c4.47-4.55,10.72-6,16-9.25S1369.62,698.84,1375,696Z" transform="translate(0)" fill="#e9e9e9"/><path d="M1414,693c9.52-4.46,18.22-10.29,27-16h3c-1.38,4.14-5.82,4.36-8.64,6.66A47.21,47.21,0,0,1,1430,687c0,2.41-1.77,3.36-3.53,4.37-15,8.58-30.12,16.94-45.08,25.56-1.89,1.09-3.9,2.92-6.39,1.07-8.79,4-17.18,8.62-24.62,14.93-2.6,2.2-5.91,3.63-9,5.15-1.68.82-3.27.39-3.78-1.73.19-1.46,1.24-2,2.32-2.45,20.14-8.89,38.2-21.59,57.82-31.42C1403.33,699.67,1409.26,697.34,1414,693Z" transform="translate(0)" fill="#e7e7e7"/><path d="M1465.21,648.13c-23.63-30.88-46.32-62.45-69.08-94l1.43-1,68.88,94.12Z" transform="translate(0)" fill="#f7f7f7"/><path d="M1354.4,487a49.9,49.9,0,0,1,10.4,13.77A35.29,35.29,0,0,1,1354.4,487Z" transform="translate(0)" fill="#f7f7f7"/><path d="M1505,696l-2,1-7.29-10.45c3.42-.39,4,2,5.29,3.45l3,3C1504.73,693.87,1505.9,694.59,1505,696Z" transform="translate(0)" fill="#e3e3e3"/><path d="M1329,461c4.39,2.8,6.32,7.53,8.92,11.73-3.72-3.33-7-7-8.92-11.73Z" transform="translate(0)" fill="#f7f7f7"/><path d="M1434.51,589.09a13.29,13.29,0,0,1-7-9.18Z" transform="translate(0)" fill="#f7f7f7"/><path d="M1373.74,514.86l-6.11-8A9.33,9.33,0,0,1,1373.74,514.86Z" transform="translate(0)" fill="#f7f7f7"/><path d="M1346,661c-4.66,1.43-8.93.4-13-2A45.85,45.85,0,0,1,1346,661Z" transform="translate(0)" fill="#e7e7e7"/><path d="M1355.5,498l-3.9-5.19C1354.32,493.4,1355.31,495.37,1355.5,498Z" transform="translate(0)" fill="#f7f7f7"/><path d="M1470.29,585.68c-1.29,0-1.69-.53-1.25-1.75C1470.37,583.88,1470.72,584.46,1470.29,585.68Z" transform="translate(0)" fill="#f7f7f7"/><path d="M1321,657c-1.68,1-3.06.93-4-1Z" transform="translate(0)" fill="#e7e7e7"/><path d="M1351,662c-1.69,1.12-2.94.44-4-1A7,7,0,0,1,1351,662Z" transform="translate(0)" fill="#e7e7e7"/><path d="M1329,461c-.86-.79-2.35-1.15-2-2.89,1.75.29,1.55,1.81,2,2.89Z" transform="translate(0)" fill="#f7f7f7"/><path d="M1276.36,389.11c1.43.2,1.81.63,1.91,1.4C1276.78,391.06,1277.08,390,1276.36,389.11Z" transform="translate(0)" fill="#f7f7f7"/><path d="M1443,602c-.89-.72-2-1.16-2.24-2.78C1442.44,599.58,1442.63,600.87,1443,602Z" transform="translate(0)" fill="#f7f7f7"/><path d="M1507,702h3a3.29,3.29,0,0,1-2,2Z" transform="translate(0)" fill="#e3e3e3"/><path d="M1530.61,733.78l-13.51-17.85C1521.66,717.55,1528.27,726,1530.61,733.78Z" transform="translate(0)" fill="#e3e3e3"/><path d="M1646,848c-3.74-.24-6.07-2.28-9.33-8.68,4.16,2.68,5.79,6.77,9.33,8.69Z" transform="translate(0)" fill="#f0f0f0"/><path d="M1505,696c-.34-1-.68-2-1-3,2,.63,3.72,1.52,4.22,3.82C1506.67,697.57,1506,696.38,1505,696Z" transform="translate(0)" fill="#eee"/><path d="M1516,712c-1.59,0-2.13-.49-2-1.75C1515.48,709.64,1516,710.34,1516,712Z" transform="translate(0)" fill="#e3e3e3"/><path d="M1510,702c1.16-1.69,1.72-.71,2.3.54-1.13,1.19-1.59-.25-2.3-.54Z" transform="translate(0)" fill="#eee"/><path d="M1133,87c.71,1.8,1.43,3.59,2.5,6.28-3.12-2.36-4.24-5.13-6-7.78,1.82-.35,2.46,1.09,3.54,1.5Z" transform="translate(0)" fill="#e5e5e5"/><path d="M1148,112a9.28,9.28,0,0,1-3.39-4.93c2.57,1.13,2.82,3.14,3.39,4.93Z" transform="translate(0)" fill="#e5e5e5"/><path d="M1148,112c.88.69,2,1.13,2.22,2.74-1.66-.32-1.85-1.61-2.22-2.74Z" transform="translate(0)" fill="#e5e5e5"/><path d="M1140.7,101.12c1.12.21,1.5.65,1.54,1.44C1141.2,103,1140.9,102.34,1140.7,101.12Z" transform="translate(0)" fill="#e5e5e5"/><path d="M1127.23,81c-1.11-.43-1.54-.83-1.42-1.63C1126.93,79.07,1127.18,79.72,1127.23,81Z" transform="translate(0)" fill="#e5e5e5"/><path d="M1375,718c18.12-10.72,36.25-21.41,55-31,4.47.89,7.59-3,12.21-3.65,3.88,8.31,3.67,17.82,9.3,27.48-9.48-5.42-9.81,6.6-16.13,5.68-8.89,17.75-27.5,20.75-42,29.78l-3.93-2.61c-1.84.09-2.81,1-2.89,2.48-.21,4.56-3.16,6.14-7,7.09a21.66,21.66,0,0,0-5.45,2.4c-7.55,4.3-13.63,1.76-14.77-7-.76-5.8-1.35-11.84,1.9-17.54,1.82-3.21,3.7-5.78,7.21-7.12C1371.33,722.84,1373.21,720.43,1375,718Z" transform="translate(0)" fill="#e9e9e9"/><path d="M1458.83,692.57c2.23,4.1-.11,6.28-.73,8.76C1456.72,698.61,1456.57,696,1458.83,692.57Z" transform="translate(0)" fill="#e9e9e9"/><path d="M1043,493c-1-5.73-4.23-11-4-17,0-3.32,1.38-6.52.86-9.89s-1.68-6.55,1.17-9.34c5.84,2.35,11.51,9.37,10.65,13.35-1.32,6.15-2.07,12.44-4.44,18.32C1046.43,490.45,1045.42,492.43,1043,493Z" transform="translate(0)" fill="#eee"/><path d="M1019,500.73c1,1.4.36,1.85-.54,2.29C1017.26,501.93,1017.5,501.3,1019,500.73Z" transform="translate(0)" fill="#eee"/><path d="M1016.17,491.17l.74.36-.59,1c-.19-.2-.51-.38-.55-.61S1016,491.42,1016.17,491.17Z" transform="translate(0)" fill="#eee"/><path d="M1004.41,430.32c.67,1.5.84,1.86,1,2.25C1004.39,432.88,1004.41,432.26,1004.41,430.32Z" transform="translate(0)" fill="#eee"/><path d="M1311,720c2.16,3.57-.34,5.83-2.39,8.52,6.19-3.24,14-.11,19.39-5.52l-3.25,6.66c-5.93-.07-11.94.23-17.74,2.68-3.6,1.51-6.48,4-10,5.58-1.85.83-3.78,1.5-5.66.14a2.74,2.74,0,0,1-.93-3.14c.62-2.4,2.55-2.81,4.64-3,5.65-.41,9.5-4.48,14.08-7C1310.92,724,1311,721.86,1311,720Z" transform="translate(0)" fill="#e7e7e7"/><path d="M1375,696c-5.85,5-13.15,7.66-19.61,11.7-3.91,2.45-7.76,5.19-12.39,6.3l-4,1c3.7-4.31,8.92-6.1,13.88-8.22C1360.44,703.55,1367,698.19,1375,696Z" transform="translate(0)" fill="#e7e7e7"/><path d="M1292,692c6.25,4.1,10.5,10,14.69,16a11.31,11.31,0,0,1,2.31,7c-3.44-6.69-8.62-12.08-13.34-17.8C1294.3,695.55,1292.49,694.25,1292,692Z" transform="translate(0)" fill="#e7e7e7"/><path d="M1268,664c5.72,5,11.61,9.91,15,17A95.54,95.54,0,0,1,1268,664Z" transform="translate(0)" fill="#e7e7e7"/><path d="M1329,722a6.1,6.1,0,0,1,4-3A6.1,6.1,0,0,1,1329,722Z" transform="translate(0)" fill="#e7e7e7"/><path d="M1283,681l3,3A3.75,3.75,0,0,1,1283,681Z" transform="translate(0)" fill="#e7e7e7"/><path d="M1382.27,852.93c-2.66-2.46-4.69-4-3.92-7.48C1381.45,846.85,1382.81,848.74,1382.27,852.93Z" transform="translate(0)" fill="#e9e9e9"/><path d="M1270.85,655.76c6.28-1.24,8,3,10.48,5.59-.25,2.43-1.64,3.67-3.38,3.23C1273.9,663.56,1273.27,659.58,1270.85,655.76Z" transform="translate(0)" fill="#e7e7e7"/><path d="M1297.47,676.2c-4.16-2.66-8.08-5.62-10.38-10.24C1292.54,667.22,1294.57,672.16,1297.47,676.2Z" transform="translate(0)" fill="#e7e7e7"/><path d="M1291.88,735.83c.84-3.17,2.78-2.67,4.82-2.52C1295.76,736.63,1295.76,736.63,1291.88,735.83Z" transform="translate(0)" fill="#e6e6e6"/></svg>